<svg width="48" height="48" viewBox="0 0 48 48" fill="none" xmlns="http://www.w3.org/2000/svg">
<path d="M19 33V45H29V33H19Z" fill="#A6C7FF"/>
<path d="M40 48H8C7.20435 48 6.44129 47.6839 5.87868 47.1213C5.31607 46.5587 5 45.7957 5 45V13C5 12.2044 5.31607 11.4413 5.87868 10.8787C6.44129 10.3161 7.20435 10 8 10H15V14H9V44H39V14H33V10H40C40.7957 10 41.5587 10.3161 42.1213 10.8787C42.6839 11.4413 43 12.2044 43 13V45C43 45.7957 42.6839 46.5587 42.1213 47.1213C41.5587 47.6839 40.7957 48 40 48Z" fill="#1A76E3"/>
<path d="M19 9V13H29V9H19Z" fill="#A6C7FF"/>
<path d="M22 16H26V6H22V16Z" fill="#A6C7FF"/>
<path d="M32 22H16C15.2044 22 14.4413 21.6839 13.8787 21.1213C13.3161 20.5587 13 19.7956 13 19V3C13 2.20435 13.3161 1.44129 13.8787 0.87868C14.4413 0.31607 15.2044 0 16 0L32 0C32.7956 0 33.5587 0.31607 34.1213 0.87868C34.6839 1.44129 35 2.20435 35 3V19C35 19.7956 34.6839 20.5587 34.1213 21.1213C33.5587 21.6839 32.7956 22 32 22ZM17 18H31V4H17V18Z" fill="#1A76E3"/>
</svg>
