<svg width="48" height="48" viewBox="0 0 48 48" fill="none" xmlns="http://www.w3.org/2000/svg">
<path d="M39 48H9C8.20435 48 7.44129 47.6839 6.87868 47.1213C6.31607 46.5587 6 45.7957 6 45V40C6.01737 36.1373 7.26868 32.3812 9.57133 29.2798C11.874 26.1784 15.1075 23.8941 18.8 22.76L20 26.59C17.1193 27.4638 14.5942 29.2372 12.7946 31.6504C10.995 34.0636 10.0157 36.9897 10 40V44H38V40C38.0145 36.9949 37.0561 34.0659 35.268 31.6506C33.48 29.2353 30.9584 27.4635 28.08 26.6L29.24 22.77C32.9418 23.8797 36.1851 26.1576 38.4851 29.2632C40.785 32.3689 42.0181 36.1355 42 40V45C42 45.7957 41.6839 46.5587 41.1213 47.1213C40.5587 47.6839 39.7957 48 39 48Z" fill="#1A76E3"/>
<path d="M24 28H23.26C20.4345 27.767 17.8031 26.4693 15.8983 24.3695C13.9934 22.2698 12.9574 19.5247 13 16.69V3C13 2.20435 13.3161 1.44129 13.8787 0.87868C14.4413 0.31607 15.2043 0 16 0L32 0C32.7956 0 33.5587 0.31607 34.1213 0.87868C34.6839 1.44129 35 2.20435 35 3V17C34.9962 18.5003 34.6855 19.984 34.087 21.3597C33.4885 22.7355 32.615 23.9743 31.52 25C29.492 26.9293 26.7991 28.0036 24 28ZM17 4V16.69C16.9596 18.5091 17.6114 20.2757 18.8236 21.6326C20.0357 22.9896 21.7179 23.8357 23.53 24C24.488 24.0645 25.449 23.9312 26.3533 23.6084C27.2576 23.2856 28.0858 22.7802 28.7865 22.1236C29.4871 21.4671 30.0452 20.6734 30.426 19.792C30.8068 18.9105 31.0022 17.9602 31 17V4H17Z" fill="#1A76E3"/>
<path d="M33 10H15V14H33V10Z" fill="#1A76E3"/>
<path d="M19 34V38H29V34H19Z" fill="#A6C7FF"/>
<path d="M22 41H26V31H22V41Z" fill="#A6C7FF"/>
</svg>
