<svg width="20" height="20" viewBox="0 0 20 20" fill="none" xmlns="http://www.w3.org/2000/svg">
<mask id="mask0_30332_61689" style="mask-type:alpha" maskUnits="userSpaceOnUse" x="0" y="12" width="16" height="8">
<path fill-rule="evenodd" clip-rule="evenodd" d="M0 12.4561L15.754 12.4561L15.754 19.795L0 19.795L0 12.4561Z" fill="white"/>
</mask>
<g mask="url(#mask0_30332_61689)">
<path fill-rule="evenodd" clip-rule="evenodd" d="M7.877 13.9561C3.646 13.9561 1.5 14.6831 1.5 16.1151C1.5 17.5611 3.646 18.2951 7.877 18.2951C12.108 18.2951 14.254 17.5681 14.254 16.1371C14.254 14.6891 12.108 13.9561 7.877 13.9561ZM7.877 19.7951C5.929 19.7951 0 19.7951 0 16.1151C0 12.8351 4.495 12.4561 7.877 12.4561C9.825 12.4561 15.754 12.4561 15.754 16.1371C15.754 19.4161 11.259 19.7951 7.877 19.7951Z" fill="#1F2937"/>
</g>
<path fill-rule="evenodd" clip-rule="evenodd" d="M7.87758 1.5C5.77358 1.5 4.06058 3.213 4.06058 5.318C4.05658 6.337 4.44858 7.292 5.16358 8.013C5.87958 8.733 6.83358 9.132 7.84958 9.136L7.87758 9.886L7.87758 9.136C9.98258 9.136 11.6956 7.423 11.6956 5.318C11.6956 3.213 9.98258 1.5 7.87758 1.5ZM7.87758 10.636H7.84658C6.42758 10.631 5.09758 10.074 4.10058 9.07C3.10258 8.065 2.55558 6.731 2.56058 5.315C2.56058 2.386 4.94558 0 7.87758 0C10.8106 0 13.1956 2.386 13.1956 5.318C13.1956 8.25 10.8106 10.636 7.87758 10.636Z" fill="#1F2937"/>
<path fill-rule="evenodd" clip-rule="evenodd" d="M17.2031 11.4299C16.7891 11.4299 16.4531 11.0939 16.4531 10.6799L16.4531 6.66895C16.4531 6.25495 16.7891 5.91895 17.2031 5.91895C17.6171 5.91895 17.9531 6.25495 17.9531 6.66895L17.9531 10.6799C17.9531 11.0939 17.6171 11.4299 17.2031 11.4299Z" fill="#1F2937"/>
<path fill-rule="evenodd" clip-rule="evenodd" d="M19.2502 9.42383H15.1602C14.7462 9.42383 14.4102 9.08783 14.4102 8.67383C14.4102 8.25983 14.7462 7.92383 15.1602 7.92383L19.2502 7.92383C19.6642 7.92383 20.0002 8.25983 20.0002 8.67383C20.0002 9.08783 19.6642 9.42383 19.2502 9.42383Z" fill="#1F2937"/>
</svg>
