<svg width="16" height="16" viewBox="0 0 16 16" fill="none" xmlns="http://www.w3.org/2000/svg">
<path d="M3.24343 4.33306L3.24379 4.33285L7.19485 2.0475C7.19521 2.04729 7.19557 2.04708 7.19593 2.04687C7.69613 1.76156 8.30593 1.76303 8.79675 2.04637C8.79676 2.04638 8.79677 2.04638 8.79679 2.04639L12.7535 4.33112C12.754 4.33142 12.7545 4.33173 12.755 4.33203C13.2495 4.62333 13.5543 5.14707 13.5601 5.72235V10.28C13.5601 10.8558 13.2545 11.3835 12.7635 11.667L12.7634 11.667L8.80537 13.9526C8.80505 13.9528 8.80472 13.953 8.80439 13.9531C8.30417 14.2385 7.6943 14.2371 7.20343 13.9537L3.24518 11.668C2.7506 11.3767 2.44678 10.8469 2.44678 10.28V5.72004C2.44678 5.14432 2.75236 4.61657 3.24343 4.33306ZM8.827 11.6603L8.83629 11.651L8.84509 11.6412C8.94153 11.534 9.01918 11.413 9.07498 11.279C9.12963 11.1479 9.16678 10.9959 9.16678 10.8334C9.16678 10.6736 9.13085 10.5239 9.07769 10.3943C9.01646 10.2378 8.93158 10.1217 8.84509 10.0256L8.83629 10.0158L8.827 10.0065C8.50056 9.68005 7.99421 9.57301 7.55779 9.75707C7.40294 9.8182 7.28773 9.9025 7.1923 9.98839L7.18252 9.99719L7.17322 10.0065C6.94754 10.2322 6.83344 10.535 6.83344 10.8334C6.83344 10.9697 6.85425 11.1246 6.91857 11.279L6.9252 11.2949L6.9329 11.3103C6.98806 11.4206 7.0585 11.5338 7.15513 11.6412L7.17274 11.6608L7.1923 11.6784C7.28839 11.7648 7.40454 11.8497 7.56102 11.911C7.69066 11.9641 7.84029 12 8.00011 12C8.30776 12 8.60311 11.8841 8.827 11.6603ZM8.00011 4.16671C7.45064 4.16671 7.00011 4.61723 7.00011 5.16671V8.66671C7.00011 9.21618 7.45064 9.66671 8.00011 9.66671C8.54959 9.66671 9.00011 9.21618 9.00011 8.66671V5.16671C9.00011 4.61723 8.54959 4.16671 8.00011 4.16671Z" fill="#F97316" stroke="#F97316"/>
</svg>
