<svg width="48" height="48" viewBox="0 0 48 48" fill="none" xmlns="http://www.w3.org/2000/svg">
<path d="M37 47H11V7C11 5.4087 11.6321 3.88258 12.7574 2.75736C13.8826 1.63214 15.4087 1 17 1H31C32.5913 1 34.1174 1.63214 35.2426 2.75736C36.3679 3.88258 37 5.4087 37 7V47ZM15 43H33V7C33 6.46957 32.7893 5.96086 32.4142 5.58579C32.0391 5.21071 31.5304 5 31 5H17C16.4696 5 15.9609 5.21071 15.5858 5.58579C15.2107 5.96086 15 6.46957 15 7V43Z" fill="#1A76E3"/>
<path d="M44 47H4C3.20435 47 2.44129 46.6839 1.87868 46.1213C1.31607 45.5587 1 44.7956 1 44V23C1 22.2044 1.31607 21.4413 1.87868 20.8787C2.44129 20.3161 3.20435 20 4 20H13V24H5V43H43V24H35.67V20H44C44.7957 20 45.5587 20.3161 46.1213 20.8787C46.6839 21.4413 47 22.2044 47 23V44C47 44.7956 46.6839 45.5587 46.1213 46.1213C45.5587 46.6839 44.7957 47 44 47Z" fill="#1A76E3"/>
<path d="M23 10H19V20H23V10Z" fill="#A6C7FF"/>
<path d="M19 13V17H29V13H19Z" fill="#A6C7FF"/>
<path d="M29 10H25V20H29V10Z" fill="#A6C7FF"/>
</svg>
