<svg width="24" height="25" viewBox="0 0 24 25" fill="none" xmlns="http://www.w3.org/2000/svg">
<path d="M9.6 16.1853L9.24645 15.8318L5.29833 11.8837C5.16661 11.7578 4.99095 11.6882 4.80866 11.6898C4.62513 11.6914 4.44956 11.765 4.31977 11.8948L3.97113 11.5461L4.31977 11.8948C4.18999 12.0246 4.11637 12.2001 4.11477 12.3837C4.11319 12.566 4.18277 12.7416 4.30864 12.8734L9.1051 17.6698C9.10512 17.6698 9.10514 17.6698 9.10515 17.6699C9.23642 17.8011 9.41441 17.8748 9.6 17.8748C9.78559 17.8748 9.96358 17.8011 10.0948 17.6699L10.0949 17.6698M9.6 16.1853L10.4484 18.0234L10.0949 17.6698M9.6 16.1853L9.95355 15.8318L18.7051 7.08022L18.3516 6.72662L18.7052 7.08017C18.8364 6.94898 19.0144 6.87527 19.2 6.87527C19.3856 6.87527 19.5635 6.94895 19.6948 7.08012M9.6 16.1853L19.6948 8.06986C19.826 7.9386 19.8997 7.76061 19.8997 7.57502C19.8997 7.38945 19.8261 7.21148 19.6949 7.08023M10.0949 17.6698L19.6948 8.06992L10.0949 17.6698ZM19.6949 7.08023L20.0484 6.72664L19.6948 7.08012M19.6949 7.08023C19.6949 7.08019 19.6948 7.08015 19.6948 7.08012M19.6949 7.08023C19.6949 7.08019 19.6948 7.08015 19.6948 7.08012" fill="white" stroke="white"/>
</svg>
