<svg width="48" height="48" viewBox="0 0 48 48" fill="none" xmlns="http://www.w3.org/2000/svg">
<path d="M31 40H3V46H31V40Z" fill="#A6C7FF"/>
<path d="M43 48H4C3.46957 48 2.96086 47.7893 2.58579 47.4142C2.21071 47.0391 2 46.5304 2 46C2 45.4696 2.21071 44.9609 2.58579 44.5858C2.96086 44.2107 3.46957 44 4 44H43C43.5304 44 44.0391 44.2107 44.4142 44.5858C44.7893 44.9609 45 45.4696 45 46C45 46.5304 44.7893 47.0391 44.4142 47.4142C44.0391 47.7893 43.5304 48 43 48Z" fill="#1A76E3"/>
<path d="M24.92 30.4699C23.8867 30.4684 22.894 30.067 22.15 29.3499L16.38 23.7999C16.0008 23.4357 15.6971 23.0003 15.4863 22.5186C15.2755 22.0369 15.1618 21.5184 15.1515 20.9927C15.1413 20.467 15.2349 19.9445 15.4268 19.455C15.6187 18.9655 15.9052 18.5186 16.27 18.1399L30.84 2.99992C31.9331 1.86804 33.427 1.21084 35 1.16992H35.12C36.6717 1.17092 38.1627 1.77305 39.28 2.84992L42.16 5.61992C43.3051 6.72358 43.9652 8.23671 43.9952 9.82681C44.0252 11.4169 43.4226 12.9539 42.32 14.0999L27.8 29.2399C27.4274 29.6281 26.9802 29.9371 26.4854 30.1485C25.9905 30.3598 25.4581 30.4692 24.92 30.4699ZM24.92 26.4699L39.49 11.3299C39.6727 11.1409 39.8164 10.9177 39.9127 10.6732C40.0091 10.4286 40.0564 10.1674 40.0517 9.90456C40.0471 9.64171 39.9906 9.38237 39.8857 9.14135C39.7807 8.90032 39.6293 8.68236 39.44 8.49992L36.55 5.72992C36.3664 5.54145 36.1449 5.39408 35.9001 5.29754C35.6553 5.20101 35.3928 5.15751 35.13 5.16992C34.601 5.18007 34.0976 5.39942 33.73 5.77992L19.16 20.9199L24.92 26.4699Z" fill="#1A76E3"/>
<path d="M19.89 34.78C19.3716 34.7805 18.8732 34.5798 18.5 34.22L11.65 27.63C11.2955 27.2568 11.0986 26.7612 11.1002 26.2464C11.1018 25.7316 11.3018 25.2373 11.6587 24.8663C12.0155 24.4952 12.5017 24.2761 13.016 24.2545C13.5304 24.2328 14.0332 24.4103 14.42 24.75L21.27 31.34C21.5566 31.6162 21.7542 31.9717 21.8376 32.3608C21.9211 32.75 21.8865 33.1553 21.7383 33.5247C21.5901 33.8941 21.335 34.2109 21.0058 34.4345C20.6765 34.6581 20.288 34.7784 19.89 34.78Z" fill="#1A76E3"/>
<path d="M20 48V44C21.7072 44 23.3977 43.6638 24.9749 43.0105C26.5521 42.3572 27.9852 41.3996 29.1924 40.1924C30.3996 38.9853 31.3571 37.5522 32.0104 35.9749C32.6637 34.3977 33 32.7072 33 31C33.0087 28.1858 32.0955 25.4462 30.4 23.2001L33.6 20.8C35.4943 23.3257 36.6478 26.329 36.9313 29.4734C37.2148 32.6177 36.6172 35.7789 35.2053 38.6027C33.7934 41.4265 31.623 43.8013 28.9374 45.4611C26.2518 47.1209 23.1571 48 20 48Z" fill="#1A76E3"/>
<path d="M37.2 47.7999L34.62 44.7499C36.4883 43.1704 38.015 41.2266 39.1069 39.0372C40.1988 36.8478 40.8328 34.4588 40.9704 32.0162C41.108 29.5735 40.7462 27.1284 39.9071 24.8303C39.0679 22.5322 37.7691 20.4292 36.09 18.6499L39 15.8999C41.0521 18.0748 42.6393 20.6453 43.6646 23.4543C44.6899 26.2632 45.1318 29.2517 44.9634 32.2372C44.7949 35.2227 44.0196 38.1425 42.6848 40.8182C41.35 43.494 39.4837 45.8696 37.2 47.7999Z" fill="#1A76E3"/>
</svg>
