<svg width="48" height="48" viewBox="0 0 48 48" fill="none" xmlns="http://www.w3.org/2000/svg">
<path d="M40 47.5H8C7.20435 47.5 6.44129 47.1839 5.87868 46.6213C5.31607 46.0587 5 45.2957 5 44.5V4.5C5 3.70435 5.31607 2.94129 5.87868 2.37868C6.44129 1.81607 7.20435 1.5 8 1.5H40C40.7957 1.5 41.5587 1.81607 42.1213 2.37868C42.6839 2.94129 43 3.70435 43 4.5V44.5C43 45.2957 42.6839 46.0587 42.1213 46.6213C41.5587 47.1839 40.7957 47.5 40 47.5ZM9 43.5H39V5.5H9V43.5Z" fill="#2161FF"/>
<path d="M19 13V17H29V13H19Z" fill="#A6C7FF"/>
<path d="M22 20H26V10H22V20Z" fill="#A6C7FF"/>
<path d="M30 29.5H18C17.4696 29.5 16.9609 29.2893 16.5858 28.9142C16.2107 28.5391 16 28.0304 16 27.5C16 26.9696 16.2107 26.4609 16.5858 26.0858C16.9609 25.7107 17.4696 25.5 18 25.5H30C30.5304 25.5 31.0391 25.7107 31.4142 26.0858C31.7893 26.4609 32 26.9696 32 27.5C32 28.0304 31.7893 28.5391 31.4142 28.9142C31.0391 29.2893 30.5304 29.5 30 29.5Z" fill="#A6C7FF"/>
<path d="M30 38.5H18C17.4696 38.5 16.9609 38.2893 16.5858 37.9142C16.2107 37.5391 16 37.0304 16 36.5C16 35.9696 16.2107 35.4609 16.5858 35.0858C16.9609 34.7107 17.4696 34.5 18 34.5H30C30.5304 34.5 31.0391 34.7107 31.4142 35.0858C31.7893 35.4609 32 35.9696 32 36.5C32 37.0304 31.7893 37.5391 31.4142 37.9142C31.0391 38.2893 30.5304 38.5 30 38.5Z" fill="#A6C7FF"/>
</svg>
