<svg width="734" height="734" viewBox="0 0 734 734" fill="none" xmlns="http://www.w3.org/2000/svg">
<path d="M367 734C164.677 734 0 569.323 0 367C0 164.677 164.677 0 367 0C569.323 0 734 164.677 734 367C734 569.323 569.323 734 367 734ZM367 59.5192C197.486 59.5192 59.5192 197.486 59.5192 367C59.5192 536.514 197.486 674.481 367 674.481C536.514 674.481 674.481 536.514 674.481 367C674.481 197.486 536.514 59.5192 367 59.5192Z" fill="url(#paint0_linear_1440_62579)" fill-opacity="0.5"/>
<path d="M367 109.094C224.783 109.094 109.094 224.783 109.094 367C109.094 509.217 224.783 624.906 367 624.906C509.217 624.906 624.906 509.217 624.906 367C624.906 224.783 509.217 109.094 367 109.094ZM367 567.746C256.258 567.746 166.254 477.636 166.254 367C166.254 256.363 256.258 166.254 367 166.254C477.742 166.254 567.746 256.258 567.746 367C567.746 477.742 477.742 567.746 367 567.746Z" fill="url(#paint1_linear_1440_62579)" fill-opacity="0.5"/>
<path d="M366.47 213.951C282.321 213.951 213.95 282.322 213.95 366.47C213.95 450.619 282.321 518.99 366.47 518.99C450.618 518.99 518.989 450.619 518.989 366.47C518.989 282.322 450.618 213.951 366.47 213.951ZM366.47 470.499C309.038 470.499 262.441 423.797 262.441 366.47C262.441 309.144 309.144 262.442 366.47 262.442C423.796 262.442 470.499 309.144 470.499 366.47C470.499 423.797 423.901 470.499 366.47 470.499Z" fill="url(#paint2_linear_1440_62579)" fill-opacity="0.5"/>
<defs>
<linearGradient id="paint0_linear_1440_62579" x1="1034.32" y1="-415.032" x2="116.582" y2="595.967" gradientUnits="userSpaceOnUse">
<stop stop-color="white"/>
<stop offset="1" stop-color="white" stop-opacity="0"/>
</linearGradient>
<linearGradient id="paint1_linear_1440_62579" x1="944.78" y1="-254.615" x2="168.81" y2="577.314" gradientUnits="userSpaceOnUse">
<stop stop-color="white"/>
<stop offset="1" stop-color="white" stop-opacity="0"/>
</linearGradient>
<linearGradient id="paint2_linear_1440_62579" x1="892.551" y1="-105.39" x2="213.578" y2="540.008" gradientUnits="userSpaceOnUse">
<stop stop-color="white"/>
<stop offset="1" stop-color="white" stop-opacity="0"/>
</linearGradient>
</defs>
</svg>
