<svg width="48" height="48" viewBox="0 0 48 48" fill="none" xmlns="http://www.w3.org/2000/svg">
<path d="M39 46C40.8565 46 42.637 45.2625 43.9497 43.9497C45.2625 42.637 46 40.8565 46 39C46 37.1435 45.2625 35.363 43.9497 34.0503C42.637 32.7375 40.8565 32 39 32H34V46H39Z" fill="#A6C7FF"/>
<path d="M1.5 25.5H15.5V39.5H1.5" fill="#A6C7FF"/>
<path d="M26 14H6C5.20435 14 4.44129 13.6839 3.87868 13.1213C3.31607 12.5587 3 11.7956 3 11V3C3 2.20435 3.31607 1.44129 3.87868 0.87868C4.44129 0.31607 5.20435 0 6 0L26 0C26.7956 0 27.5587 0.31607 28.1213 0.87868C28.6839 1.44129 29 2.20435 29 3V11C29 11.7956 28.6839 12.5587 28.1213 13.1213C27.5587 13.6839 26.7956 14 26 14ZM7 10H25V4H7V10Z" fill="#1A76E3"/>
<path d="M28 48H3C2.20435 48 1.44129 47.6839 0.87868 47.1213C0.31607 46.5587 0 45.7957 0 45L0 22.88C0.000256201 21.6214 0.396301 20.3947 1.13209 19.3736C1.86788 18.3525 2.90616 17.5886 4.1 17.19L6 16.56V12H10V18C10.0004 18.4205 9.86821 18.8305 9.62226 19.1716C9.37631 19.5126 9.02911 19.7675 8.63 19.9L5.37 21C4.97412 21.1314 4.62921 21.3832 4.38356 21.7203C4.13791 22.0574 4.0038 22.4629 4 22.88V44H28V48Z" fill="#1A76E3"/>
<path d="M32 33H28V22.88C27.9962 22.4629 27.8621 22.0574 27.6164 21.7203C27.3708 21.3832 27.0259 21.1314 26.63 21L23.37 19.9C22.9709 19.7675 22.6237 19.5126 22.3777 19.1716C22.1318 18.8305 21.9996 18.4205 22 18V12H26V16.56L27.9 17.19C29.0938 17.5886 30.1321 18.3525 30.8679 19.3736C31.6037 20.3947 31.9997 21.6214 32 22.88V33Z" fill="#1A76E3"/>
<path d="M39 48H29C26.6131 48 24.3239 47.0518 22.636 45.364C20.9482 43.6761 20 41.3869 20 39C20 36.6131 20.9482 34.3239 22.636 32.636C24.3239 30.9482 26.6131 30 29 30H39C41.3869 30 43.6761 30.9482 45.364 32.636C47.0518 34.3239 48 36.6131 48 39C48 41.3869 47.0518 43.6761 45.364 45.364C43.6761 47.0518 41.3869 48 39 48ZM29 34C27.6739 34 26.4021 34.5268 25.4645 35.4645C24.5268 36.4021 24 37.6739 24 39C24 40.3261 24.5268 41.5979 25.4645 42.5355C26.4021 43.4732 27.6739 44 29 44H39C40.3261 44 41.5979 43.4732 42.5355 42.5355C43.4732 41.5979 44 40.3261 44 39C44 37.6739 43.4732 36.4021 42.5355 35.4645C41.5979 34.5268 40.3261 34 39 34H29Z" fill="#1A76E3"/>
</svg>
