<svg width="101" height="100" viewBox="0 0 101 100" fill="none" xmlns="http://www.w3.org/2000/svg">
<circle opacity="0.2" cx="50.5" cy="50" r="50" fill="#86EFAC"/>
<circle cx="50.5" cy="50" r="33.5" fill="#86EFAC" stroke="#22C55E"/>
<path d="M46.871 61.3529L46.8523 61.3342L46.8317 61.3175L35.533 52.1857C35.0814 51.7307 35 51.5171 35 51.3947C35 51.2707 35.0836 51.053 35.5513 50.5853L38.6526 47.484C38.9534 47.1832 39.1711 47.0042 39.3365 46.905C39.4947 46.8101 39.5688 46.8098 39.6006 46.8133C39.6418 46.8179 39.7187 46.8417 39.8659 46.957C40.0162 47.0748 40.1865 47.244 40.4265 47.484L40.4485 47.506L40.4731 47.5251L46.0343 51.8505C46.5518 52.3371 47.4947 52.3246 47.9897 51.6366L60.2086 39.1084C60.4347 38.8824 60.6107 38.7262 60.7589 38.6255C60.9058 38.5257 60.9926 38.5032 61.0435 38.5003C61.1303 38.4955 61.3356 38.5416 61.7992 39.0824L61.8117 39.097L61.8252 39.1106L64.9014 42.1868L64.9194 42.2108C65.1387 42.503 65.2913 42.7064 65.3949 42.8778C65.5026 43.0559 65.5166 43.1362 65.5166 43.1764C65.5166 43.2094 65.5074 43.284 65.3933 43.4475C65.2755 43.6165 65.0804 43.8318 64.7714 44.1408L47.5594 61.3529C47.4859 61.4263 47.3641 61.4887 47.235 61.4986C47.1211 61.5074 46.9952 61.4771 46.871 61.3529Z" fill="white" stroke="#22C55E"/>
</svg>
