<svg width="20" height="20" viewBox="0 0 20 20" fill="none" xmlns="http://www.w3.org/2000/svg">
<path d="M10 15.4166C12.9916 15.4166 15.4167 12.9915 15.4167 9.99998C15.4167 7.00844 12.9916 4.58331 10 4.58331C7.0085 4.58331 4.58337 7.00844 4.58337 9.99998C4.58337 12.9915 7.0085 15.4166 10 15.4166Z" stroke="#3B82F6" stroke-width="1.5" stroke-linecap="round" stroke-linejoin="round"/>
<path d="M15.95 15.95L15.8416 15.8417M15.8416 4.15832L15.95 4.04999L15.8416 4.15832ZM4.04996 15.95L4.15829 15.8417L4.04996 15.95ZM9.99996 1.73332V1.66666V1.73332ZM9.99996 18.3333V18.2667V18.3333ZM1.73329 9.99999H1.66663H1.73329ZM18.3333 9.99999H18.2666H18.3333ZM4.15829 4.15832L4.04996 4.04999L4.15829 4.15832Z" stroke="#3B82F6" stroke-width="2" stroke-linecap="round" stroke-linejoin="round"/>
</svg>
