<svg width="21" height="20" viewBox="0 0 21 20" fill="none" xmlns="http://www.w3.org/2000/svg">
<path d="M14.6665 18.3334H6.33317C2.99984 18.3334 2.1665 17.5 2.1665 14.1667V12.5C2.1665 9.16671 2.99984 8.33337 6.33317 8.33337H14.6665C17.9998 8.33337 18.8332 9.16671 18.8332 12.5V14.1667C18.8332 17.5 17.9998 18.3334 14.6665 18.3334Z" stroke="#9CA3AF" stroke-width="1.5" stroke-linecap="round" stroke-linejoin="round"/>
<path d="M5.5 8.33329V6.66663C5.5 3.90829 6.33333 1.66663 10.5 1.66663C14.25 1.66663 15.5 3.33329 15.5 5.83329" stroke="#9CA3AF" stroke-width="1.5" stroke-linecap="round" stroke-linejoin="round"/>
<path d="M10.4998 15.4167C11.6504 15.4167 12.5832 14.4839 12.5832 13.3333C12.5832 12.1827 11.6504 11.25 10.4998 11.25C9.34924 11.25 8.4165 12.1827 8.4165 13.3333C8.4165 14.4839 9.34924 15.4167 10.4998 15.4167Z" stroke="#9CA3AF" stroke-width="1.5" stroke-linecap="round" stroke-linejoin="round"/>
</svg>
