<?xml version="1.0" encoding="UTF-8"?> <svg xmlns="http://www.w3.org/2000/svg" width="535" height="150" viewBox="0 0 535 150" fill="none"><g clip-path="url(#clip0_188_7156)"><path d="M509.57 96.6993H534.032L500.754 0H471.59L438.184 96.6993H462.366L468.327 78.0784H503.595L509.57 96.6993ZM478.176 24.4386H494.047V35.0339H504.597V50.8591H494.047V61.4092H478.176V50.8591H467.626V35.0339H478.176V24.4386Z" fill="#0066A6"></path><path d="M322.833 96.6993H346.436V29.156L375.32 72.9691L403.904 29.156V96.6993H427.506V0H396.933L375.32 35.6971L352.999 0H322.833V96.6993Z" fill="#0066A6"></path><path d="M302.924 0H279.322V96.6993H302.924V0Z" fill="#0066A6"></path><path d="M219.442 75.0867H207.506V21.6202H219.442C235.509 21.6202 239.073 30.8666 239.073 48.3647C239.073 65.8629 235.509 75.0867 219.442 75.0867ZM219.164 0H183.873V96.6993H219.141C245.742 96.6993 262.931 87.6036 262.931 48.3647C262.931 9.12585 245.765 0 219.164 0Z" fill="#0066A6"></path><path d="M122.743 75.0867V58.1688H162.841V37.4002H122.743V21.6202H165.252V0H99.1409V96.6993H163.135L167.687 75.0867H122.743Z" fill="#0066A6"></path><path d="M55.6066 0V37.5509H23.6021V0H0V96.6993H23.6021V59.1711H55.6066V96.6993H79.2087V0H55.6066Z" fill="#0066A6"></path><path d="M17.8598 113.79V125.795H3.33082V113.79H0V141.454H3.33082V128.862H17.8598V141.424H21.1907V113.79H17.8598ZM37.061 141.861C39.5057 141.926 41.9425 141.556 44.2577 140.769V137.754C42.0492 138.589 39.7001 138.988 37.3399 138.93C32.2155 138.93 30.4371 137.302 30.309 131.854H45.3806C45.3806 131.319 45.4936 130.467 45.4936 129.827C45.4936 122.411 42.9239 119.488 36.4959 119.488C29.6157 119.488 27.0309 123.18 27.0309 130.678C27.0309 139.201 29.9623 141.854 37.0309 141.854L37.061 141.861ZM30.2788 129.126C30.4748 124.491 32.0723 122.344 36.4959 122.344C40.9194 122.344 42.2005 124.31 42.2457 129.126H30.2788ZM57.0083 141.861C59.8493 141.861 62.3436 141.304 64.205 139.917L64.6948 141.424H67.1741V126.127C67.1741 120.852 63.5644 119.465 58.1311 119.465C55.8875 119.45 53.652 119.737 51.4846 120.316V123.331C53.5256 122.703 55.6492 122.386 57.7845 122.389C61.7408 122.389 63.896 123.286 63.896 126.217V129.827C61.7484 129.177 59.5157 128.852 57.272 128.862C52.5471 128.862 49.578 130.083 49.578 135.079C49.578 139.887 51.7784 141.861 57.061 141.861H57.0083ZM58.3044 139.02C54.1221 139.02 52.8636 138.161 52.8636 135.154C52.8636 132.351 54.2502 131.65 58.4326 131.65C60.2754 131.676 62.113 131.855 63.9262 132.185V138.078C62.1176 138.702 60.2177 139.021 58.3044 139.02ZM73.6021 141.454H76.8726V112.17H73.6323L73.6021 141.454ZM91.0098 141.861C92.5279 141.918 94.0415 141.662 95.4559 141.108V138.131C94.1986 138.572 92.8773 138.804 91.5448 138.817C89.4725 138.817 88.214 138.176 88.214 136.021V122.743H95.3278V119.902H88.2442V113.836L85.0188 114.815V119.902H80.7234V122.743H85.0188V136.24C85.0188 140.407 87.1138 141.861 91.0475 141.861H91.0098ZM110.776 119.495C108.238 119.474 105.735 120.091 103.497 121.289V112.17H100.226V141.454H103.474V123.723C105.52 122.86 107.728 122.446 109.947 122.509C113.715 122.509 114.989 123.557 114.989 126.609V141.454H118.237V125.968C118.237 121.741 116.609 119.495 110.754 119.495H110.776ZM134.002 141.861C136.095 141.895 138.178 141.577 140.166 140.919V137.822C138.25 138.525 136.223 138.88 134.182 138.87C128.824 138.87 126.895 137.46 126.895 130.708C126.895 123.956 128.824 122.532 134.182 122.532C136.224 122.524 138.25 122.881 140.166 123.587V120.49C138.17 119.821 136.076 119.495 133.971 119.525C126.662 119.525 123.564 122.087 123.564 130.716C123.564 139.344 126.662 141.891 133.971 141.891L134.002 141.861ZM151.583 141.861C154.424 141.861 156.918 141.304 158.779 139.917L159.269 141.424H161.748V126.127C161.748 120.852 158.139 119.465 152.705 119.465C150.469 119.452 148.242 119.738 146.081 120.316V123.331C148.122 122.703 150.246 122.386 152.381 122.389C156.338 122.389 158.493 123.286 158.493 126.217V129.827C156.319 129.168 154.057 128.843 151.786 128.862C147.069 128.862 144.099 130.083 144.099 135.079C144.099 139.887 146.292 141.861 151.575 141.861H151.583ZM152.886 139.02C148.696 139.02 147.438 138.161 147.438 135.154C147.438 132.351 148.824 131.65 153.014 131.65C154.855 131.676 156.69 131.855 158.5 132.185V138.078C156.694 138.702 154.797 139.02 152.886 139.02ZM167.86 141.454H171.108V124.71C173.673 123.574 176.407 122.867 179.201 122.615V119.495C176.293 119.783 173.487 120.726 170.995 122.253V119.902H167.86V141.454ZM191.741 141.861C194.188 141.925 196.627 141.555 198.945 140.769V137.754C196.736 138.589 194.387 138.988 192.027 138.93C186.895 138.93 185.102 137.302 184.996 131.854H200.068C200.113 131.319 200.196 130.467 200.196 129.827C200.196 122.411 197.634 119.488 191.206 119.488C184.326 119.488 181.718 123.18 181.718 130.678C181.718 139.201 184.65 141.854 191.741 141.854V141.861ZM184.959 129.126C185.154 124.491 186.752 122.344 191.176 122.344C195.599 122.344 196.88 124.31 196.918 129.126H184.959ZM226.277 113.79H217.234V141.454H226.187C234.408 141.454 238.244 137.995 238.244 127.551C238.244 117.001 234.529 113.79 226.24 113.79H226.277ZM225.787 138.357H220.58V116.888H226.323C232.856 116.888 234.868 119.148 234.868 127.551C234.868 135.433 232.751 138.357 225.787 138.357ZM243.406 115.991H247.174V112.487H243.406V115.991ZM243.685 141.454H246.933V119.902H243.685V141.454ZM254.71 150C256.541 149.955 258.402 149.872 260.52 149.638C268.591 148.613 271.477 146.3 271.477 140.897V119.902H268.252V121.243C266.308 120.028 264.047 119.42 261.756 119.495C255.516 119.495 252.359 122.547 252.359 130.52C252.359 138.847 256.285 141.537 261.778 141.537C264 141.564 266.207 141.18 268.289 140.407V141.582C268.289 143.61 267.204 144.913 264.793 145.682C262.381 146.451 259.066 146.835 254.71 146.948V150ZM262.675 138.613C257.182 138.613 255.69 135.772 255.69 130.52C255.69 125.072 257.144 122.509 262.675 122.509C264.574 122.448 266.462 122.806 268.206 123.557V137.95C266.398 138.404 264.54 138.626 262.675 138.613ZM277.694 116.006H281.515V112.502H277.694V116.006ZM277.973 141.469H281.236V119.917H277.973V141.469ZM295.358 141.876C296.869 141.932 298.374 141.675 299.781 141.123V138.146C298.525 138.589 297.203 138.821 295.87 138.832C293.798 138.832 292.54 138.191 292.54 136.036V122.743H299.676V119.902H292.54V113.836L289.337 114.815V119.902H285.019V122.743H289.337V136.24C289.337 140.407 291.409 141.861 295.365 141.861L295.358 141.876ZM310.61 141.876C313.451 141.876 315.931 141.319 317.807 139.932L318.297 141.439H320.776V126.142C320.776 120.867 317.144 119.48 311.733 119.48C309.497 119.464 307.269 119.75 305.109 120.332V123.346C307.153 122.718 309.279 122.401 311.417 122.404C315.365 122.404 317.521 123.301 317.521 126.232V129.842C315.339 129.183 313.07 128.858 310.791 128.877C306.074 128.877 303.105 130.098 303.105 135.094C303.105 139.902 305.305 141.876 310.603 141.876H310.61ZM311.914 139.035C307.724 139.035 306.466 138.176 306.466 135.17C306.466 132.366 307.83 131.665 312.042 131.665C313.883 131.691 315.718 131.87 317.528 132.2V138.093C315.722 138.716 313.825 139.034 311.914 139.035ZM327.204 141.469H330.452V112.17H327.204V141.469ZM348.613 141.469H351.922V118.191L362.668 133.21L373.391 118.191V141.454H376.745V113.79H372.705L362.668 128.041L352.502 113.79H348.576L348.613 141.469ZM389.729 141.876C392.57 141.876 395.072 141.319 396.933 139.932L397.423 141.439H399.902V126.142C399.902 120.867 396.292 119.48 390.859 119.48C388.623 119.467 386.395 119.753 384.235 120.332V123.346C386.276 122.718 388.4 122.401 390.535 122.404C394.491 122.404 396.647 123.301 396.647 126.232V129.842C394.472 129.184 392.211 128.859 389.94 128.877C385.215 128.877 382.246 130.098 382.246 135.094C382.246 139.902 384.423 141.876 389.721 141.876H389.729ZM391.032 139.035C386.85 139.035 385.592 138.176 385.592 135.17C385.592 132.366 386.978 131.665 391.161 131.665C393.003 131.691 394.841 131.87 396.654 132.2V138.093C394.845 138.716 392.945 139.034 391.032 139.035ZM406.006 141.469H409.194V124.71C411.761 123.572 414.498 122.865 417.295 122.615V119.495C414.38 119.788 411.568 120.73 409.066 122.253V119.902H405.946L406.006 141.469ZM439.397 141.469L428.674 130.166L438.674 119.917H434.484L424.853 129.955V112.17H421.583V141.454H424.853V130.369L435.17 141.477L439.397 141.469ZM451.213 141.876C453.658 141.939 456.094 141.569 458.41 140.784V137.769C456.199 138.604 453.847 139.003 451.485 138.945C446.36 138.945 444.567 137.317 444.461 131.869H459.533C459.578 131.334 459.661 130.482 459.661 129.842C459.661 122.427 457.099 119.503 450.671 119.503C443.79 119.503 441.183 123.195 441.183 130.693C441.183 139.216 444.107 141.869 451.206 141.869L451.213 141.876ZM444.431 129.141C444.619 124.506 446.202 122.359 450.648 122.359C455.094 122.359 456.353 124.326 456.368 129.141H444.431ZM472.69 141.876C474.208 141.932 475.721 141.675 477.136 141.123V138.146C475.879 138.587 474.558 138.819 473.225 138.832C471.153 138.832 469.895 138.191 469.895 136.036V122.743H477.016V119.902H469.902V113.836L466.677 114.815V119.902H462.359V122.743H466.677V136.24C466.677 140.407 468.749 141.861 472.705 141.861L472.69 141.876ZM481.537 115.991H485.305V112.487H481.537V115.991ZM481.831 141.454H485.079V119.902H481.831V141.454ZM491.628 141.454H494.876V123.723C496.922 122.86 499.129 122.446 501.349 122.509C505.117 122.509 506.39 123.557 506.39 126.609V141.454H509.653V125.968C509.653 121.741 508.011 119.495 502.118 119.495C499.53 119.473 496.98 120.114 494.71 121.356V119.902H491.59L491.628 141.454ZM517.325 150C519.164 149.955 521.04 149.872 523.157 149.638C531.206 148.613 534.092 146.3 534.092 140.897V119.902H530.889V121.243C528.938 120.026 526.669 119.417 524.371 119.495C518.154 119.495 514.974 122.547 514.974 130.52C514.974 138.847 518.93 141.537 524.416 141.537C526.64 141.561 528.849 141.178 530.934 140.407V141.582C530.934 143.61 529.819 144.913 527.43 145.682C525.041 146.451 521.68 146.835 517.325 146.948V150ZM525.245 138.613C519.759 138.613 518.237 135.772 518.237 130.52C518.237 125.072 519.744 122.509 525.245 122.509C527.143 122.452 529.031 122.81 530.776 123.557V137.95C528.967 138.401 527.109 138.623 525.245 138.613Z" fill="#808184"></path></g><defs><clipPath id="clip0_188_7156"><rect width="534.032" height="150" fill="white"></rect></clipPath></defs></svg> 