<?xml version="1.0" encoding="UTF-8"?> <svg xmlns="http://www.w3.org/2000/svg" width="525" height="150" viewBox="0 0 525 150" fill="none"><g clip-path="url(#clip0_188_7155)"><path d="M11.4008 145.426V126.867H16.3721C18.2943 126.867 19.8188 127.596 21.0782 129.054C22.2713 130.513 22.8679 132.435 22.8679 134.755V137.539C22.8679 139.925 22.205 141.715 21.0782 143.239C19.8851 144.697 18.3606 145.426 16.3721 145.426H11.4008ZM13.9196 129.452V143.04H16.3721C17.5652 143.04 18.5594 142.51 19.2886 141.516C20.0177 140.521 20.3491 139.262 20.3491 137.605V134.821C20.3491 133.296 20.0177 132.037 19.2886 130.91C18.5594 129.916 17.5652 129.386 16.3721 129.386L13.9196 129.452Z" fill="#414042"></path><path d="M28.3694 145.426H25.7844V126.867H28.3031C28.3694 126.933 28.3694 145.426 28.3694 145.426Z" fill="#414042"></path><path d="M40.2342 137.141H34.335V143.04H41.2947V145.493H31.8162V126.933H41.2285V129.386H34.335V134.622H40.2342V137.141ZM40.4993 125.674L38.312 125.74L36.3898 123.752L34.6001 125.74H32.4127V125.674L35.3955 122.625H37.384L40.4993 125.674ZM39.2399 119.51C39.2399 120.172 39.0411 120.57 38.776 121.034C38.5108 121.498 38.0468 121.763 37.5829 121.763C37.2514 121.763 36.8537 121.564 36.3898 121.299C35.9258 121.034 35.5943 120.835 35.3292 120.835C35.1304 120.835 34.9978 120.901 34.7989 121.167C34.6001 121.432 34.6001 121.631 34.6001 121.896L33.6058 121.564C33.6058 121.034 33.8047 120.504 34.0698 120.04C34.335 119.576 34.7989 119.311 35.2629 119.311C35.5281 119.311 35.9258 119.51 36.456 119.775C36.92 120.04 37.2514 120.239 37.5166 120.239C37.7154 120.239 37.848 120.172 38.0468 119.907C38.2457 119.642 38.312 119.377 38.312 119.112L39.2399 119.51Z" fill="#414042"></path><path d="M55.3469 145.426H52.8281L46.1335 132.103H46.0672V145.426H43.5484V126.867H46.1997L52.8281 140.19H52.8944V126.867H55.4132V145.426H55.3469Z" fill="#414042"></path><path d="M63.8975 145.426V137.075H62.2404V134.887H63.8975V126.933H68.8688C70.791 126.933 72.3155 127.662 73.5749 129.121C74.768 130.579 75.3646 132.501 75.3646 134.821V137.605C75.3646 139.991 74.7017 141.781 73.5749 143.305C72.3818 144.764 70.791 145.493 68.8688 145.493L63.8975 145.426ZM69.0676 137.141H66.35V143.04H68.8025C69.9956 143.04 70.9898 142.51 71.7189 141.516C72.4481 140.522 72.7795 139.262 72.7795 137.605V134.821C72.7795 133.297 72.4481 132.037 71.7189 130.91C70.9898 129.916 69.9956 129.386 68.8025 129.386H66.35V134.887H69.0676V137.141Z" fill="#414042"></path><path d="M85.8374 141.118H80.4684L79.2753 145.493H76.624L81.8604 126.933H84.3129L89.5493 145.493H86.898L85.8374 141.118ZM84.3129 125.144H82.2581L79.5404 121.763V121.697H82.4569L84.3129 125.144ZM81.1313 138.533H85.1083L83.1861 131.175H83.1198L81.1313 138.533Z" fill="#414042"></path><path d="M103.336 145.426H100.818L94.0566 132.103H93.9903V145.426H91.4715V126.867H93.9903L100.685 140.19H100.751V126.867H103.27L103.336 145.426Z" fill="#414042"></path><path d="M122.824 139.395C122.89 141.317 122.36 142.841 121.365 144.034C120.371 145.228 118.979 145.758 117.19 145.758C115.466 145.758 114.008 145.029 112.947 143.57C111.887 142.112 111.29 140.19 111.29 137.936V134.423C111.29 132.17 111.821 130.314 112.947 128.789C114.008 127.265 115.466 126.602 117.19 126.602C118.979 126.602 120.371 127.132 121.365 128.259C122.36 129.319 122.89 130.91 122.824 132.766V132.832H120.371C120.371 131.573 120.106 130.645 119.576 130.049C119.046 129.386 118.184 129.054 117.123 129.054C116.129 129.054 115.334 129.585 114.671 130.579C114.008 131.573 113.743 132.832 113.743 134.357V137.87C113.743 139.395 114.008 140.654 114.671 141.648C115.334 142.642 116.129 143.106 117.19 143.106C118.184 143.106 118.979 142.775 119.576 142.112C120.106 141.449 120.371 140.455 120.371 139.196L122.824 139.395Z" fill="#414042"></path><path d="M136.876 126.933V139.196C136.876 141.251 136.346 142.908 135.219 144.101C134.158 145.294 132.7 145.824 130.977 145.824C129.253 145.824 127.928 145.294 126.801 144.101C125.74 142.908 125.144 141.317 125.144 139.196V126.933H127.662V139.196C127.662 140.588 127.928 141.582 128.59 142.245C129.253 142.974 129.982 143.305 130.977 143.305C131.971 143.305 132.766 142.974 133.429 142.245C134.092 141.516 134.357 140.521 134.357 139.196V126.933H136.876ZM130.049 125.342L129.982 123.42C130.513 123.42 130.91 123.354 131.043 123.155C131.242 123.089 131.374 122.824 131.374 122.492C131.374 122.161 131.175 121.962 130.91 121.763C130.645 121.564 130.247 121.564 129.717 121.564L129.783 120.04C130.977 120.04 131.772 120.239 132.435 120.703C133.098 121.167 133.363 121.697 133.363 122.492C133.363 123.023 133.164 123.487 132.899 123.884C132.634 124.149 132.236 124.348 131.838 124.415V125.342H130.049Z" fill="#414042"></path><path d="M147.481 141.118H142.112L140.919 145.493H138.268L143.504 126.933H145.89L151.127 145.493H148.475L147.481 141.118ZM142.775 138.533H146.752L144.83 131.176H144.764L142.775 138.533Z" fill="#414042"></path><path d="M170.217 145.426H167.698V137.539H160.871V145.426H158.352V126.867H160.871V135.02H167.698V126.867H170.217V145.426Z" fill="#414042"></path><path d="M185.263 137.87C185.263 140.124 184.733 142.046 183.54 143.504C182.346 144.962 180.888 145.758 179.032 145.758C177.243 145.758 175.784 145.029 174.591 143.504C173.398 141.98 172.868 140.124 172.868 137.87V134.49C172.868 132.236 173.398 130.314 174.591 128.856C175.784 127.397 177.243 126.602 179.032 126.602C180.822 126.602 182.413 127.331 183.54 128.856C184.666 130.38 185.263 132.236 185.263 134.49V137.87ZM182.81 134.49C182.81 132.965 182.479 131.706 181.816 130.711C181.153 129.717 180.292 129.253 179.099 129.253C178.038 129.253 177.11 129.717 176.447 130.711C175.784 131.706 175.453 132.965 175.453 134.49V137.87C175.453 139.395 175.784 140.654 176.447 141.648C177.11 142.643 177.972 143.107 179.099 143.107C180.292 143.107 181.153 142.643 181.816 141.648C182.479 140.654 182.81 139.395 182.81 137.87V134.49ZM182.612 124.481V124.746H180.623L179.165 122.956L177.707 124.746H175.718V124.415L178.436 121.365H179.894L182.612 124.481ZM180.49 150H177.64V147.216H180.424V150H180.49Z" fill="#414042"></path><path d="M190.632 145.426H188.113V126.867H190.632V145.426Z" fill="#414042"></path><path d="M201.9 143.04H208.992V145.493H199.381V126.933H201.9V143.04Z" fill="#414042"></path><path d="M213.831 145.426H211.312V126.867H213.831V145.426Z" fill="#414042"></path><path d="M225.762 137.141H219.863V143.04H226.823V145.493H217.344V126.933H226.757V129.386H219.863V134.622H225.762V137.141ZM225.63 124.812V125.077H223.641L222.183 123.288L220.725 125.077H218.736V124.746L221.454 121.697H222.912L225.63 124.812Z" fill="#414042"></path><path d="M240.941 145.426H238.422L231.728 132.103H231.661V145.426H229.143V126.867H231.661L238.356 140.19H238.422V126.867H240.941V145.426Z" fill="#414042"></path><path d="M261.224 145.426H258.705V137.539H251.878V145.426H249.359V126.867H251.878V135.02H258.705V126.867H261.224V145.426Z" fill="#414042"></path><path d="M267.123 145.426H264.605V126.867H267.123V145.426Z" fill="#414042"></path><path d="M278.988 137.141H273.089V143.04H280.049V145.493H270.504V126.933H279.916V129.386H273.023V134.622H278.922L278.988 137.141ZM278.789 124.812V125.077H276.801L275.342 123.288L273.884 125.077H271.763V124.746L274.481 121.697H275.939L278.789 124.812ZM276.734 149.801H273.951V147.017H276.734V149.801Z" fill="#414042"></path><path d="M284.887 138.467V145.559H282.369V127H288.202C289.859 127 291.184 127.53 292.112 128.657C293.04 129.717 293.57 131.109 293.57 132.832C293.57 134.556 293.107 136.014 292.112 137.008C291.184 138.069 289.859 138.533 288.202 138.533L284.887 138.467ZM284.887 135.948H288.135C289.063 135.948 289.792 135.683 290.19 135.02C290.654 134.357 290.919 133.628 290.919 132.634C290.919 131.706 290.654 130.91 290.19 130.247C289.726 129.585 288.997 129.319 288.135 129.319H284.887V135.948Z" fill="#414042"></path><path d="M311.799 129.452H307.092V145.493H304.574V129.452H299.934V127H311.732V129.452H311.799Z" fill="#414042"></path><path d="M325.519 145.426H323V137.539H316.306V145.426H313.787V126.867H316.306V135.02H323.133V126.867H325.652V145.426H325.519Z" fill="#414042"></path><path d="M336.655 141.118H331.286L330.093 145.493H327.441L332.678 126.933H335.064L340.301 145.493H337.649L336.655 141.118ZM332.148 138.533H336.125L334.202 131.176H334.136L332.148 138.533Z" fill="#414042"></path><path d="M354.22 145.426H351.701L345.007 132.103H344.94V145.426H342.422V126.867H344.94L351.635 140.19H351.701V126.867H354.22V145.426Z" fill="#414042"></path><path d="M369.266 145.426H366.748V137.539H359.92V145.426H357.402V126.867H359.92V135.02H366.748V126.867H369.266V145.426Z" fill="#414042"></path><path d="M389.616 145.426H387.031L380.336 132.103H380.27V145.426H377.751V126.867H380.27L386.964 140.19H387.031V126.867H389.549V145.426H389.616Z" fill="#414042"></path><path d="M395.515 145.426H392.996V126.867H395.515V145.426Z" fill="#414042"></path><path d="M407.38 137.141H401.48V143.04H408.44V145.493H398.962V126.933H408.374V129.386H401.48V134.622H407.38V137.141ZM407.115 124.812V125.077H405.126L403.668 123.288L402.209 125.077H400.221V124.746L402.939 121.697H404.397L407.115 124.812Z" fill="#414042"></path><path d="M422.492 145.426H419.973L413.279 132.103H413.213V145.426H410.694V126.867H413.213L419.907 140.19H419.973V126.867H422.492V145.426Z" fill="#414042"></path><path d="M435.815 140.455L436.08 141.847H436.147L436.412 140.455L440.057 126.933H442.775L437.34 145.493H434.954L429.518 126.933H432.236L435.815 140.455Z" fill="#414042"></path><path d="M447.282 145.426H444.697V126.867H447.216V145.426H447.282Z" fill="#414042"></path><path d="M459.015 137.141H453.115V143.04H460.009V145.493H450.464V126.933H459.876V129.386H452.983V134.622H458.882V137.141H459.015ZM458.882 124.812V125.077H456.893L455.435 123.288L453.977 125.077H451.989V124.746L454.706 121.697H456.164L458.882 124.812ZM456.761 149.801H453.977V147.017H456.761V149.801Z" fill="#414042"></path><path d="M473 129.452H468.294V145.493H465.776V129.452H461.136V127H472.934L473 129.452Z" fill="#414042"></path><path d="M492.024 145.426H489.505L482.81 132.103H482.744V145.426H480.225V126.867H482.744L489.439 140.19H489.505V126.867H492.024V145.426Z" fill="#414042"></path><path d="M503.292 141.118H497.923L496.73 145.493H494.079L499.315 126.933H501.701L506.938 145.493H504.286L503.292 141.118ZM498.652 138.533H502.629L500.707 131.176H500.641L498.652 138.533Z" fill="#414042"></path><path d="M516.615 141.184L521.056 126.933H524.304V145.493H521.785V132.236H521.719L517.543 145.559H515.82L511.578 131.971H511.511V145.559H508.993V127H512.373L516.615 141.184Z" fill="#414042"></path><path d="M464.45 10.0088C488.909 10.0088 497.459 18.3605 500.773 21.0782V10.0751H524.967V110.627H501.237V67.4767C501.237 63.3672 497.459 52.0989 488.577 51.9664V110.627H464.45V10.0088ZM435.086 87.8258H459.677V110.694H412.285V10.0088H459.611V32.8767H435.02V49.9116H456.032V69.1338H435.02V87.8258H435.086ZM386.036 10.0088H408.904V110.561H386.036V10.0088ZM321.144 10.0088C345.603 10.0088 354.154 18.3605 357.468 21.0782V10.0751H381.728V110.627H357.998V67.4767C357.998 63.3672 354.22 52.0989 345.338 51.9664V110.627H321.211V10.0088H321.144ZM281.374 10.0088H304.176V110.561H281.308V65.7534H269.311V110.561H246.443V10.0088H269.311V46.9951H281.308V10.0088H281.374ZM180.623 10.0088C205.082 10.0088 213.632 18.3605 216.947 21.0782V10.0751H241.206V110.627H217.477V67.4767C217.477 63.3672 213.699 52.0989 204.817 51.9664V110.627H180.689V10.0088H180.623ZM115.93 110.76H140.455V98.4312H152.386V110.694H176.911V10.0088C130.314 10.0751 115.996 44.0123 115.93 67.0128V110.76ZM152.452 46.266V77.5519H140.588V69.399C140.455 61.8426 145.824 46.266 152.452 46.266ZM89.5493 10.0088H112.417V110.561H89.5493V65.7534H77.6845V110.561H54.8166V10.0088H77.6845V46.9951H89.6818V10.0088H89.5493ZM0.0662842 10.0088H51.5687V29.5625H37.5166V110.495H14.1184V29.6288H0.0662842V10.0088ZM430.579 5.63405L435.749 0.463925C436.412 -0.198912 437.738 -0.198912 438.4 0.463925L443.57 5.63405C444.233 6.29689 444.83 6.89344 443.57 8.2854C442.311 9.54479 441.648 8.94824 440.919 8.2854L437.008 4.37466L433.098 8.2854C432.435 8.94824 431.838 9.54479 430.446 8.2854C429.187 6.95973 429.916 6.29689 430.579 5.63405Z" fill="#009CD7"></path></g><defs><clipPath id="clip0_188_7155"><rect width="524.967" height="150" fill="white"></rect></clipPath></defs></svg> 