<?xml version="1.0" encoding="UTF-8"?> <svg xmlns="http://www.w3.org/2000/svg" width="723" height="150" viewBox="0 0 723 150" fill="none"><path d="M421.364 57.7771H393.886V71.9368H421.374C423.633 71.9368 425.06 71.6566 425.892 70.8072C426.653 69.9502 427.06 68.8357 427.03 67.6898V62.0241C427.06 60.8781 426.653 59.7637 425.892 58.9066C425.042 58.0572 423.614 57.7681 421.374 57.7681L421.364 57.7771ZM381.696 101.404V48.7139H427.03C430.997 48.7139 434.114 49.5633 436.066 51.2621C437.774 52.6807 438.904 55.509 438.904 58.9157V70.8072C438.904 74.2139 437.765 77.0422 436.066 78.4609C434.087 80.1687 430.97 81.009 427.03 81.009H393.886V101.404H381.696Z" fill="#777777"></path><path d="M488.855 57.7771H461.386V72.506H488.855C491.114 72.506 492.542 72.2169 493.373 71.6566C494.181 70.7118 494.589 69.4903 494.512 68.25V62.0151C494.539 60.8722 494.133 59.7614 493.373 58.9066C492.524 58.0572 491.105 57.7681 488.855 57.7681V57.7771ZM449.187 101.404V48.7139H494.277C498.533 48.7139 501.633 49.5633 503.611 51.2621C505.319 52.6807 506.458 55.509 506.458 58.9157V71.3856C506.458 75.0633 505.319 77.6205 503.611 79.0392C501.633 80.738 498.524 81.5874 494.277 81.5874H487.473L511.87 101.422H494.277L473.024 81.5783H461.395V101.413H449.214L449.187 101.404Z" fill="#777777"></path><path d="M520.907 101.404V48.7139H575.015V57.7771H533.367V69.3886H557.72V78.4609H533.367V91.4819H575.575V101.404H520.907Z" fill="#777777"></path><path d="M633.145 58.0572H598.581V69.3886H631.446C636.542 69.3886 640.229 70.238 641.928 71.9368C643.898 73.6446 644.756 77.0422 644.756 81.8765V88.9609C644.756 93.7681 643.898 97.1747 641.928 98.9006C640.22 100.599 636.506 101.449 631.446 101.449H598.87C593.765 101.449 590.376 100.599 588.379 98.9006C586.681 97.1928 585.831 93.7952 585.831 88.9609V87.5151L596.602 85.256V91.4819H633.705V79.5904H600.831C595.744 79.5904 592.346 78.741 590.639 76.7621C588.651 75.0542 587.792 71.9458 587.792 67.1295V61.1747C587.792 56.3584 588.651 53.25 590.639 51.5422C592.346 49.5542 595.735 48.7139 600.831 48.7139H630.858C635.961 48.7139 639.364 49.5633 641.069 51.2621C643.039 52.9609 643.889 56.0783 643.889 60.2982V61.4458L633.126 63.994V58.0572H633.145Z" fill="#777777"></path><path d="M702.967 58.0572H668.422V69.3886H701.286C706.383 69.3886 709.78 70.238 711.759 71.9368C713.467 73.6446 714.316 77.0422 714.316 81.8765V88.9609C714.316 93.7681 713.467 97.1747 711.759 98.9006C709.78 100.599 706.392 101.449 701.286 101.449H668.675C663.578 101.449 659.892 100.599 658.184 98.9006C656.196 97.1928 655.355 93.7952 655.355 88.9609V87.5151L666.126 85.256V91.4819H703.509V79.5904H670.681C665.584 79.5904 662.178 78.741 660.199 76.7621C658.491 75.0542 657.642 71.9458 657.642 67.1295V61.1747C657.642 56.3584 658.491 53.25 660.199 51.5422C662.178 49.5542 665.62 48.7139 670.681 48.7139H700.708C705.527 48.7139 708.925 49.5633 710.901 51.2621C712.888 52.9609 713.738 56.0783 713.738 60.2982V61.4458L702.958 63.994V58.0572H702.967Z" fill="#777777"></path><path d="M301.87 101.404L326.801 74.494L301.301 48.7139H317.738L334.455 66.5603L350.602 48.7139H364.482L341.539 73.0753L370.148 101.404H353.431L334.175 81L316.319 101.404H301.87Z" fill="#777777"></path><path d="M40.0843 101.404L9.48795 48.7139H23.6566L44.9006 86.9548L65.3042 48.7139H77.4759L48.5873 101.404H40.0843Z" fill="#777777"></path><path d="M87.0904 101.404V48.7139H95.3042L132.416 79.8795C133.601 80.761 134.738 81.7051 135.822 82.7078C136.837 83.5788 137.785 84.5242 138.66 85.5362C138.37 82.7078 138.09 80.4398 138.09 79.3102V48.7139H149.096V101.404H140.602L101.747 68.8283C100.922 68.1447 100.163 67.3854 99.4789 66.5603C98.7148 66.0399 98.0708 65.3621 97.5904 64.5723C97.8242 66.1665 97.9179 67.778 97.8705 69.3886C98.094 70.6041 98.1879 71.84 98.1506 73.0753V101.404H87.0904Z" fill="#777777"></path><path d="M284.241 135.063C284.241 136.741 283.575 138.35 282.388 139.536C281.202 140.722 279.593 141.388 277.916 141.388H172.536C170.859 141.388 169.25 140.722 168.063 139.536C166.877 138.35 166.211 136.741 166.211 135.063V14.9366C166.211 13.2591 166.877 11.6502 168.063 10.464C169.25 9.27774 170.859 8.61133 172.536 8.61133H277.916C279.593 8.61133 281.202 9.27774 282.388 10.464C283.575 11.6502 284.241 13.2591 284.241 14.9366V135.063Z" fill="#9F224E"></path><path d="M216.786 48.6507H267.976C271.473 48.6507 273.687 46.0393 273.687 42.5513V25.6989C273.687 22.2019 271.473 19.1567 267.976 19.1567H183.669C180.172 19.1567 176.738 22.211 176.738 25.6989V124.753C176.738 128.25 180.181 130.853 183.669 130.853H267.976C271.473 130.853 273.687 128.241 273.687 124.753V107.892C273.687 104.395 271.473 101.35 267.976 101.35H216.786V90.8043H234.262C237.759 90.8043 239.973 88.1929 239.973 84.7049V65.729C239.973 62.232 237.75 59.1869 234.262 59.1869H216.786V48.6507ZM217.392 65.5122H233.657V84.4881H210.461V107.675H267.389V124.536H183.081V25.473H267.389V42.3254H210.461V65.5122H217.392Z" fill="white"></path></svg> 