<?xml version="1.0" encoding="UTF-8"?> <svg xmlns="http://www.w3.org/2000/svg" width="478" height="150" viewBox="0 0 478 150" fill="none"><g clip-path="url(#clip0_188_7157)"><path fill-rule="evenodd" clip-rule="evenodd" d="M93.9473 96.2103C94.338 99.627 95.6205 102.736 97.7047 105.269C100.573 108.745 104.807 110.658 109.652 110.658C114.457 110.658 118.699 108.745 121.57 105.269C124.129 102.179 125.496 98.2362 125.496 93.9131V50.7205C125.496 47.0649 124.492 43.726 122.535 40.7918C121.924 39.8631 121.949 38.6344 122.623 37.7723C124.811 34.9298 125.93 31.6983 125.93 28.1844C125.93 23.8936 124.309 20.0177 121.298 16.976C118.261 13.9492 114.37 12.3372 110.085 12.3372C105.769 12.3372 101.894 13.939 98.864 16.976H98.8473C95.8353 20.0177 94.2251 23.8936 94.2251 28.1844C94.2251 31.527 95.1908 34.5723 97.1149 37.2909C97.4353 37.7362 97.5779 38.2427 97.5779 38.7723C97.5779 39.2955 97.4112 39.8298 97.076 40.2696C94.9362 43.2659 93.7927 46.877 93.7927 50.7205V91.7603C93.9214 92.7538 94.0047 93.7631 94.0047 94.8094C94.0047 95.2761 93.9797 95.7566 93.9473 96.2103Z" fill="#FEFEFE"></path><path fill-rule="evenodd" clip-rule="evenodd" d="M192.385 41.4239C186.857 36.0442 179.572 33.3174 170.763 33.3174C165.908 33.3174 161.545 34.1785 157.851 35.8637C157.129 36.1776 156.274 36.1729 155.567 35.7878C153.284 34.5822 150.68 33.9766 147.806 33.9766C142.972 33.9766 138.74 35.8915 135.849 39.3878C133.284 42.4822 131.931 46.3905 131.931 50.7211V93.9127C131.931 98.2368 133.284 102.153 135.857 105.269C138.703 108.745 142.972 110.658 147.786 110.658C152.62 110.658 156.878 108.745 159.751 105.249C162.29 102.153 163.631 98.2368 163.631 93.9127V65.5665L163.724 64.4961C163.81 63.0961 164.862 62.2452 166.267 62.2979L166.637 62.3248C167.969 62.3942 168.982 63.2683 169.047 64.5989L169.107 65.5665V93.9127C169.107 98.2294 170.458 102.153 173.014 105.249C175.888 108.745 180.133 110.658 184.956 110.658C189.806 110.658 194.031 108.745 196.897 105.269C199.466 102.153 200.817 98.2294 200.817 93.9127V78.9813C200.599 76.8794 200.46 74.7627 200.46 72.5387C200.46 70.5127 200.599 68.509 200.817 66.559V62.8915C200.817 54.0748 197.97 46.8572 192.385 41.4239Z" fill="#FEFEFE"></path><path fill-rule="evenodd" clip-rule="evenodd" d="M218.646 104.441C219.225 104.937 219.562 105.659 219.562 106.415C219.562 106.58 219.55 106.748 219.511 106.897C219.358 107.831 218.699 108.58 217.809 108.864C211.982 110.811 207.77 116.757 207.77 123.024C207.77 131.04 214.166 137.793 221.714 137.793H239.885C251.472 137.793 260.822 134.702 267.695 128.596C275.985 121.147 278.931 107.692 278.931 97.561V50.7203C278.931 46.4036 277.6 42.4814 275.037 39.3814C272.164 35.8916 267.926 33.9758 263.099 33.9758C260.086 33.9758 257.364 34.6471 254.978 35.9805C254.227 36.4129 253.333 36.4231 252.558 36.0379C248.998 34.2462 244.818 33.3175 240.149 33.3175C229.648 33.3175 220.656 37.736 214.206 46.1119L214.192 46.1388C209.611 52.1379 206.862 59.0971 205.969 66.8666V78.7564C206.817 86.2286 209.127 92.7703 212.991 98.2295C214.584 100.544 216.484 102.63 218.646 104.441Z" fill="#FEFEFE"></path><path fill-rule="evenodd" clip-rule="evenodd" d="M72.9829 79.6169H60.544C59.5764 79.6169 58.6903 79.0771 58.2569 78.2123C57.8079 77.3456 57.894 76.303 58.4532 75.5179C58.4532 75.5179 82.7412 41.8919 82.7236 41.9012C85.294 38.2669 86.6023 34.3456 86.6023 30.2586C86.6023 25.2623 84.5569 20.9466 80.869 18.1095C77.7449 15.6891 73.7736 14.4178 69.3838 14.4178H28.1755C24.0153 14.4178 20.2449 15.9206 17.2597 18.7614C14.1755 21.6966 12.556 25.5271 12.556 29.8512C12.556 34.3327 14.3292 38.3197 17.5505 41.0336C20.444 43.5058 24.1264 44.7966 28.1755 44.7966H37.5671C38.5394 44.7966 39.4255 45.3456 39.8597 46.2114C40.3153 47.0651 40.2319 48.1086 39.6764 48.8993C39.6764 48.8993 15.0681 83.2392 15.0782 83.2123C14.2866 84.354 13.6245 85.4975 13.144 86.603L13.0718 86.729C11.9894 89.2641 11.4403 91.7743 11.4403 94.1679C11.4403 99.104 13.4875 103.395 17.2153 106.285C20.3764 108.722 24.3218 110.01 28.6458 110.01H72.9829C76.9606 110.01 80.6708 108.639 83.7347 105.957C86.6097 103.447 88.3764 100.136 88.7569 96.416C88.6718 95.5947 88.6292 94.7734 88.6292 93.9123V92.0123C87.4838 84.3975 81.6134 79.6169 72.9829 79.6169Z" fill="#FEFEFE"></path><path fill-rule="evenodd" clip-rule="evenodd" d="M101.971 28.1841C101.971 25.9508 102.762 24.0341 104.333 22.4665C105.91 20.886 107.823 20.0823 110.085 20.0823C112.316 20.0823 114.241 20.886 115.814 22.4665C117.388 24.0341 118.17 25.9508 118.17 28.1841C118.17 30.4452 117.388 32.3489 115.814 33.9249C114.241 35.5064 112.316 36.2934 110.085 36.2934C107.823 36.2934 105.91 35.5064 104.333 33.9249C102.762 32.3489 101.971 30.4452 101.971 28.1841ZM101.543 93.9128V50.7202C101.543 48.1712 102.243 46.0323 103.681 44.3193C105.104 42.5906 107.083 41.7184 109.652 41.7184C112.187 41.7184 114.176 42.5906 115.597 44.3193C117.025 46.0323 117.745 48.1712 117.745 50.7202V93.9128C117.745 96.4591 117.025 98.5971 115.597 100.335C114.176 102.064 112.187 102.917 109.652 102.917C107.083 102.917 105.104 102.064 103.681 100.335C102.243 98.5971 101.543 96.4591 101.543 93.9128Z" fill="#49A942"></path><path fill-rule="evenodd" clip-rule="evenodd" d="M139.692 93.9127V50.721C139.692 48.171 140.403 46.033 141.83 44.3192C143.252 42.5905 145.236 41.7182 147.805 41.7182C152.001 41.7182 154.48 43.683 155.242 47.5618C158.454 43.2479 163.631 41.0682 170.763 41.0682C177.523 41.0682 182.926 43.0266 186.985 46.9562C191.027 50.9062 193.071 56.2229 193.071 62.8914V93.9127C193.071 96.4756 192.343 98.5979 190.926 100.336C189.495 102.064 187.512 102.918 184.955 102.918C182.423 102.918 180.437 102.064 178.999 100.336C177.57 98.5979 176.865 96.459 176.865 93.9127V65.5664C176.865 62.2053 175.928 59.5071 174.113 57.5312C172.259 55.5543 169.647 54.5377 166.267 54.5377C163.035 54.5377 160.487 55.5812 158.649 57.6562C156.807 59.7127 155.884 62.3543 155.884 65.5664V93.9127C155.884 96.459 155.189 98.5979 153.735 100.336C152.334 102.064 150.332 102.918 147.786 102.918C145.236 102.918 143.241 102.064 141.83 100.336C140.403 98.5979 139.692 96.459 139.692 93.9127Z" fill="#F37A20"></path><path fill-rule="evenodd" clip-rule="evenodd" d="M255.001 72.7637C255.001 68.36 253.988 64.573 251.962 61.4471C249.645 57.8054 246.367 55.9619 242.162 55.9619C238.196 55.9619 235.031 57.7063 232.717 61.2424C230.621 64.3674 229.574 67.9989 229.574 72.1017C229.574 76.5008 230.534 80.2323 232.491 83.3054C234.749 86.8804 237.977 88.6758 242.162 88.6758C246.367 88.6758 249.645 86.986 251.962 83.636C253.988 80.7258 255.001 77.1063 255.001 72.7637ZM221.715 130.046C218.345 130.046 215.527 126.676 215.527 123.024C215.527 119.372 218.841 116.012 221.563 116.012H239.884C244.023 116.012 248.724 114.863 251.234 112.612C253.74 110.327 255.001 103.879 255.001 99.7989V95.9711C251.336 101.027 245.774 103.57 238.348 103.57C230.174 103.57 223.847 100.302 219.337 93.7869C215.348 88.1758 213.365 81.0934 213.365 72.5387C213.365 64.1489 215.699 56.9248 220.351 50.8591C225.37 44.3322 231.965 41.0684 240.149 41.0684C246.966 41.0684 251.935 43.536 255.001 48.4526C255.968 43.9647 258.673 41.7184 263.099 41.7184C265.642 41.7184 267.638 42.5906 269.052 44.3193C270.482 46.0322 271.184 48.1841 271.184 50.7202V97.561C271.184 106.997 268.297 117.624 262.544 122.809C257.047 127.669 249.493 130.046 239.884 130.046H221.715Z" fill="#ED2B74"></path><path fill-rule="evenodd" clip-rule="evenodd" d="M40.3481 87.3643H72.9832C78.3879 87.3643 81.0888 89.8699 81.0888 94.8097C81.0888 96.918 80.2666 98.693 78.6332 100.137C76.9768 101.553 75.1008 102.269 72.9832 102.269H28.6462C26.011 102.269 23.7777 101.553 21.9369 100.137C20.0934 98.7032 19.186 96.7143 19.186 94.168C19.186 92.8004 19.5073 91.3634 20.1907 89.78C20.499 89.106 20.9147 88.4032 21.4286 87.6421L57.6842 37.0421H28.1758C25.9434 37.0421 24.0592 36.4134 22.5629 35.1152C21.0555 33.8643 20.3147 32.0856 20.3147 29.8513C20.3147 27.6624 21.0721 25.8254 22.6277 24.3754C24.1536 22.9023 26.011 22.1486 28.1758 22.1486H69.3832C72.0777 22.1486 74.3508 22.8486 76.1388 24.2393C77.9369 25.6263 78.8314 27.6263 78.8314 30.2587C78.8314 32.7384 78.0184 35.1152 76.3897 37.4439L40.3481 87.3643Z" fill="#009CDB"></path><path fill-rule="evenodd" clip-rule="evenodd" d="M91.9883 38.7722C89.8263 42.3213 88.63 46.4037 88.63 50.7203V80.6564C84.9013 76.7555 79.4596 74.4592 72.9828 74.4592H65.6087C70.1485 68.1314 86.9448 44.9148 86.9448 44.9148C88.8004 42.2583 90.1078 39.4861 90.9032 36.5926C91.2254 37.3259 91.5809 38.0629 91.9883 38.7722ZM88.7569 96.4157C88.3763 100.136 86.6096 103.448 83.7346 105.957C80.6707 108.639 76.9606 110.01 72.9828 110.01H28.6457C24.3217 110.01 20.3763 108.722 17.2152 106.285C13.4874 103.394 11.4402 99.1037 11.4402 94.1675C11.4402 91.774 11.9902 89.2638 13.0717 86.7287L13.1439 86.6027C13.6244 85.4972 14.2874 84.3546 15.0781 83.212C15.068 83.2388 39.6763 48.9 39.6763 48.9C40.2328 48.1083 40.3152 47.0657 39.8596 46.2111C39.4254 45.3453 38.5393 44.7963 37.568 44.7963H28.1763C24.1263 44.7963 20.4439 43.5064 17.5504 41.0333C14.3291 38.3203 12.5559 34.3324 12.5559 29.8509C12.5559 25.5268 14.1754 21.6972 17.2596 18.762C20.2457 15.9213 24.0152 14.4185 28.1763 14.4185H69.3837C73.7735 14.4185 77.7448 15.6898 80.8689 18.1101C84.5578 20.9472 86.6032 25.2629 86.6032 30.2583C86.6032 34.3453 85.2939 38.2675 82.7235 41.9009C82.7411 41.8925 58.4532 75.5185 58.4532 75.5185C57.8939 76.3027 57.8078 77.3453 58.2569 78.2129C58.6902 79.0768 59.5763 79.6166 60.5448 79.6166H72.9828C81.6133 79.6166 87.4837 84.3972 88.63 92.012C88.7569 92.9129 88.8522 93.8435 88.8522 94.8101C88.8522 95.3555 88.8124 95.8898 88.7569 96.4157ZM109.652 110.658C104.807 110.658 100.573 108.744 97.7041 105.268C95.6198 102.736 94.3383 99.6277 93.9476 96.2101C93.9791 95.7564 94.005 95.2759 94.005 94.8101C94.005 93.7638 93.9217 92.7537 93.793 91.7611V50.7203C93.793 46.8768 94.9365 43.2666 97.0763 40.2703C97.4115 39.8296 97.5781 39.2953 97.5781 38.7722C97.5781 38.2425 97.4356 37.7361 97.1152 37.2907C95.1911 34.5722 94.2254 31.5268 94.2254 28.1842C94.2254 23.8935 95.8346 20.0185 98.8476 16.9759H98.8643C101.894 13.9398 105.769 12.337 110.085 12.337C114.37 12.337 118.261 13.949 121.298 16.9759C124.31 20.0185 125.93 23.8935 125.93 28.1842C125.93 31.6981 124.811 34.9305 122.623 37.7722C121.949 38.6351 121.924 39.8629 122.536 40.7916C124.492 43.7268 125.497 47.0657 125.497 50.7203V93.9129C125.497 98.237 124.129 102.179 121.571 105.268C118.699 108.744 114.457 110.658 109.652 110.658ZM200.817 93.9129C200.817 98.2296 199.466 102.153 196.898 105.268C194.031 108.744 189.806 110.658 184.955 110.658C180.132 110.658 175.887 108.744 173.014 105.249C170.459 102.153 169.107 98.2296 169.107 93.9129V65.5657L169.048 64.599C168.982 63.2685 167.969 62.3944 166.637 62.325L166.267 62.2981C164.862 62.2453 163.81 63.0963 163.724 64.4963L163.631 65.5657V93.9129C163.631 98.237 162.29 102.153 159.751 105.249C156.878 108.744 152.62 110.658 147.786 110.658C142.973 110.658 138.703 108.744 135.856 105.268C133.285 102.153 131.931 98.237 131.931 93.9129V50.7203C131.931 46.3907 133.285 42.4814 135.849 39.3879C138.74 35.8916 142.973 33.9759 147.805 33.9759C150.68 33.9759 153.285 34.5824 155.567 35.787C156.274 36.1731 157.129 36.1777 157.85 35.8629C161.545 34.1787 165.909 33.3176 170.763 33.3176C179.573 33.3176 186.857 36.0444 192.386 41.424C197.97 46.8564 200.817 54.074 200.817 62.8907V66.5592C200.599 68.5092 200.46 70.512 200.46 72.5388C200.46 74.7629 200.599 76.8787 200.817 78.9814V93.9129ZM278.931 97.5611C278.931 107.693 275.985 121.147 267.695 128.596C260.822 134.702 251.472 137.793 239.885 137.793H221.714C214.166 137.793 207.77 131.039 207.77 123.024C207.77 116.757 211.982 110.811 217.809 108.864C218.699 108.58 219.358 107.831 219.511 106.897C219.55 106.748 219.562 106.58 219.562 106.415C219.562 105.659 219.225 104.937 218.646 104.441C216.484 102.63 214.584 100.544 212.991 98.2296C209.127 92.7703 206.817 86.2287 205.969 78.7564C205.747 76.7435 205.618 74.6842 205.618 72.5388C205.618 70.5879 205.747 68.7046 205.969 66.8666C206.862 59.0972 209.611 52.1379 214.192 46.1388L214.206 46.112C220.656 37.7361 229.648 33.3176 240.149 33.3176C244.818 33.3176 248.999 34.2463 252.558 36.037C253.333 36.4231 254.227 36.4129 254.978 35.9805C257.364 34.6463 260.087 33.9759 263.099 33.9759C267.926 33.9759 272.164 35.8916 275.037 39.3814C277.6 42.4814 278.931 46.4037 278.931 50.7203V97.5611ZM279.031 36.1083C275.15 31.4009 269.496 28.8 263.099 28.8C259.683 28.8 256.531 29.5305 253.67 30.9287C249.658 29.1092 245.133 28.1463 240.149 28.1463C227.972 28.1463 217.576 33.2629 210.127 42.9703L210.087 43.0018C207.863 45.9 206.038 48.999 204.601 52.2703C203.049 46.6648 200.161 41.7787 195.997 37.7111C189.455 31.3777 180.954 28.1463 170.763 28.1463C165.628 28.1463 160.969 29.0416 156.858 30.7166C154.113 29.474 151.071 28.8 147.805 28.8C141.402 28.8 135.727 31.4009 131.863 36.1083C130.534 37.6898 129.449 39.4861 128.651 41.3842C128.344 40.7333 128.049 40.0814 127.676 39.4463C129.878 36.0444 131.092 32.225 131.092 28.1842C131.092 22.4731 128.974 17.3398 124.955 13.3222C120.927 9.30829 115.77 7.17773 110.085 7.17773C104.376 7.17773 99.2254 9.30829 95.2059 13.3222L95.1911 13.3472C92.7476 15.7638 91.0189 18.624 90.0541 21.7675C88.7309 18.7388 86.7189 16.087 84.0337 14.0138C79.9781 10.8972 74.9133 9.25366 69.3837 9.25366H28.1763C22.6624 9.25366 17.6522 11.25 13.6994 15.0175C9.56982 18.9518 7.39296 24.0722 7.39296 29.8509C7.39296 35.8796 9.80778 41.237 14.2022 44.9861C18.03 48.2435 22.8791 49.962 28.1763 49.962H32.5319C27.9809 56.3092 10.8541 80.2166 10.8541 80.2166C9.86981 81.6555 9.03648 83.0805 8.39481 84.5101C8.38926 84.549 8.34018 84.6888 8.34018 84.6888C6.97537 87.8768 6.25685 91.0657 6.25685 94.1675C6.25685 100.736 9.03648 106.503 14.0596 110.367C18.1096 113.513 23.1661 115.184 28.6457 115.184H72.9828C78.2337 115.184 83.1143 113.346 87.0967 109.851C88.8004 108.414 90.1939 106.726 91.2828 104.884C91.9809 106.182 92.7782 107.414 93.7282 108.553C97.5893 113.254 103.253 115.831 109.652 115.831C116.045 115.831 121.698 113.241 125.566 108.553C126.864 106.997 127.913 105.268 128.723 103.408C129.542 105.249 130.561 106.997 131.863 108.553C135.727 113.241 141.381 115.831 147.786 115.831C154.206 115.831 159.85 113.241 163.724 108.536C164.803 107.242 165.628 105.825 166.386 104.311C167.108 105.825 167.969 107.242 169.035 108.536C172.905 113.241 178.569 115.831 184.955 115.831C191.355 115.831 197.024 113.241 200.89 108.553C203.711 105.11 205.399 100.942 205.857 96.35C206.717 98.024 207.668 99.6435 208.747 101.193C209.862 102.796 211.161 104.282 212.531 105.719C206.641 109.258 202.618 115.976 202.618 123.024C202.618 133.837 211.366 142.968 221.714 142.968H239.885C252.789 142.968 263.285 139.429 271.118 132.456C280.687 123.861 284.112 108.798 284.112 97.5611V50.7203C284.112 45.1731 282.349 40.1314 279.031 36.1083Z" fill="#B8B8B8"></path><path fill-rule="evenodd" clip-rule="evenodd" d="M279.031 36.1082C275.151 31.4008 269.496 28.7999 263.099 28.7999C259.683 28.7999 256.531 29.5304 253.67 30.9286C249.658 29.1092 245.133 28.1462 240.149 28.1462C227.972 28.1462 217.576 33.2629 210.127 42.9703L210.087 43.0017C207.863 45.8999 206.038 48.999 204.601 52.2703C203.048 46.6647 200.161 41.7786 195.997 37.711C189.455 31.3777 180.954 28.1462 170.763 28.1462C165.628 28.1462 160.969 29.0416 156.858 30.7166C154.113 29.473 151.071 28.7999 147.805 28.7999C141.402 28.7999 135.727 31.4008 131.863 36.1082C130.534 37.6897 129.448 39.4851 128.651 41.3842C128.344 40.7332 128.048 40.0814 127.677 39.4453C129.878 36.0443 131.093 32.2249 131.093 28.1842C131.093 22.473 128.973 17.3397 124.955 13.3221C120.927 9.30822 115.77 7.17767 110.085 7.17767C104.376 7.17767 99.2262 9.30822 95.2058 13.3221L95.191 13.3471C92.7475 15.7638 91.0188 18.624 90.054 21.7675C88.7318 18.7388 86.7188 16.086 84.0336 14.0138C79.9781 10.8971 74.9132 9.2536 69.3836 9.2536H28.1762C22.6623 9.2536 17.6521 11.2499 13.6994 15.0175C9.56973 18.9517 7.39287 24.0721 7.39287 29.8508C7.39287 35.8795 9.80769 41.2369 14.2021 44.986C18.0299 48.2434 22.879 49.9619 28.1762 49.9619H32.5318C27.9808 56.3092 10.854 80.2166 10.854 80.2166C9.87065 81.6554 9.03639 83.0795 8.39473 84.5101C8.38917 84.549 8.3401 84.6888 8.3401 84.6888C6.97528 87.8767 6.25676 91.0656 6.25676 94.1675C6.25676 100.736 9.03639 106.503 14.0595 110.367C18.1105 113.513 23.166 115.184 28.6457 115.184H72.9827C78.2336 115.184 83.1142 113.346 87.0966 109.851C88.8003 108.414 90.1938 106.726 91.2827 104.884C91.9808 106.182 92.7781 107.414 93.7281 108.553C97.5892 113.254 103.253 115.83 109.652 115.83C116.045 115.83 121.698 113.241 125.566 108.553C126.864 106.997 127.913 105.268 128.723 103.408C129.542 105.249 130.561 106.997 131.863 108.553C135.727 113.241 141.381 115.83 147.785 115.83C154.206 115.83 159.85 113.241 163.724 108.536C164.803 107.242 165.628 105.825 166.385 104.311C167.108 105.825 167.969 107.242 169.035 108.536C172.905 113.241 178.569 115.83 184.955 115.83C191.356 115.83 197.023 113.241 200.89 108.553C203.71 105.109 205.4 100.942 205.857 96.3499C206.717 98.024 207.668 99.6434 208.747 101.192C209.862 102.795 211.16 104.282 212.531 105.719C206.641 109.258 202.619 115.976 202.619 123.024C202.619 133.837 211.366 142.967 221.715 142.967H239.885C252.789 142.967 263.285 139.429 271.118 132.456C280.686 123.861 284.112 108.798 284.112 97.561V50.7203C284.112 45.173 282.348 40.1314 279.031 36.1082ZM110.085 0.906372C117.366 0.906372 124.211 3.74063 129.393 8.89063C133.045 12.5471 135.563 17.1314 136.68 22.1267L136.761 22.5129C136.891 23.0138 137.205 23.4397 137.638 23.698C138.102 23.9517 138.631 24.0342 139.109 23.8795L139.495 23.7675C142.148 22.9564 144.942 22.5379 147.805 22.5379C150.621 22.5379 153.448 22.973 156.223 23.8017C156.202 23.8017 156.305 23.8351 156.305 23.8351C156.679 23.9517 157.056 23.9517 157.42 23.8342L157.52 23.7823C161.612 22.5342 166.088 21.8786 170.763 21.8786C182.476 21.8786 192.726 25.8008 200.381 33.2184C201.463 34.3008 202.573 35.5064 203.625 36.8073L203.89 37.148C204.241 37.5795 204.744 37.848 205.286 37.8564C205.83 37.8638 206.347 37.6249 206.717 37.2092L207.015 36.873C215.444 27.2027 227.218 21.8786 240.149 21.8786C244.635 21.8786 248.969 22.5758 253.002 23.8999L253.098 23.9517C253.469 24.0619 253.862 24.0619 254.253 23.9517L254.379 23.9064C257.236 23.011 260.16 22.5379 263.099 22.5379C271.416 22.5379 278.78 25.9443 283.861 32.1027C288.142 37.2758 290.38 43.7101 290.38 50.7203V97.561C290.38 103.663 289.287 124.556 275.303 137.134C266.272 145.15 254.365 149.235 239.885 149.235H221.715C207.952 149.235 196.337 137.227 196.337 123.024V122.438C196.337 121.832 196.057 121.306 195.58 120.955C195.11 120.611 194.498 120.485 193.932 120.691L193.448 120.818C190.753 121.683 187.879 122.104 184.955 122.104C178.497 122.104 172.564 120.025 167.793 116.102L167.524 115.889C166.856 115.34 165.879 115.34 165.194 115.889L164.976 116.102C160.195 120.025 154.269 122.104 147.785 122.104C141.079 122.104 134.973 119.918 130.161 115.751L129.908 115.552C129.213 114.955 128.186 114.955 127.508 115.552L127.273 115.751C122.448 119.918 116.354 122.104 109.652 122.104C103.081 122.104 97.0762 119.988 92.3179 116.012C92.3012 116.012 92.0882 115.817 92.0882 115.817C91.4355 115.26 90.4753 115.234 89.7882 115.751L89.5679 115.946C84.7512 119.541 79.0169 121.455 72.9827 121.455H28.6457C21.7558 121.455 15.3892 119.345 10.2401 115.342C3.71787 110.317 -0.00712585 102.606 -0.00712585 94.1675C-0.00712585 90.198 0.87343 86.1684 2.57621 82.1693L2.69843 81.9342C3.48084 80.173 4.48732 78.398 5.68824 76.6703C5.68824 76.6832 19.4744 57.448 19.4744 57.448C19.8114 56.9777 19.8966 56.3851 19.7308 55.8193C19.5642 55.2758 19.1531 54.8453 18.6132 54.6471L18.1605 54.4814C15.2086 53.373 12.516 51.7795 10.1419 49.7666C4.32158 44.8193 1.11139 37.736 1.11139 29.8508C1.11139 22.4221 4.04936 15.5601 9.36047 10.4869C14.5197 5.57026 21.016 2.98137 28.1762 2.98137H69.3836C76.2929 2.98137 82.6984 5.07026 87.8633 9.05082L88.141 9.2536C88.867 9.811 89.9105 9.75359 90.5605 9.09248L90.7929 8.86285C95.9327 3.711 102.786 0.906372 110.085 0.906372Z" fill="#FEFEFE"></path><path d="M307.104 103.45C308.141 103.45 308.996 103.114 309.669 102.441C310.37 101.741 310.72 100.731 310.72 99.414V74.1862C310.72 71.8035 311.239 69.7993 312.276 68.1735C313.229 66.4076 314.518 65.1462 316.144 64.3893C317.77 63.5204 319.522 63.0859 321.4 63.0859C324.315 63.0859 326.81 64.067 328.884 66.0291C330.958 67.9353 331.996 70.5982 331.996 74.018V99.414C331.996 100.591 332.36 101.488 333.089 102.105C333.818 102.778 334.686 103.114 335.696 103.114C336.761 103.114 337.644 102.806 338.345 102.189C339.101 101.516 339.48 100.591 339.48 99.414V73.8498C339.48 70.1217 338.737 66.8981 337.251 64.1791C335.766 61.5162 333.775 59.54 331.281 58.2506C328.954 56.9892 326.319 56.3585 323.376 56.3585C320.825 56.3585 318.499 56.877 316.396 57.9142C314.098 59.0354 312.262 60.5211 310.888 62.3711L310.72 62.2029V60.3949C310.72 59.1335 310.342 58.1384 309.585 57.4096C308.912 56.7089 308.029 56.3585 306.936 56.3585C305.899 56.3585 305.023 56.7159 304.308 57.4307C303.593 58.1454 303.236 59.1335 303.236 60.3949V99.414C303.236 100.563 303.642 101.544 304.455 102.357C305.184 103.086 306.067 103.45 307.104 103.45ZM363.779 103.282C367.311 103.282 370.647 102.624 373.786 101.306C377.038 99.8485 379.42 98.2788 380.934 96.5969C381.663 95.756 382.027 94.831 382.027 93.8218C382.027 92.9529 381.803 92.2101 381.354 91.5934C380.934 90.9487 380.275 90.6263 379.378 90.6263C378.705 90.6263 377.752 91.0888 376.519 92.0139C372.847 95.1814 368.74 96.7651 364.199 96.7651C361.677 96.7651 359.35 96.2465 357.22 95.2094C355.061 94.1442 353.408 92.5605 352.258 90.4581C350.997 88.4679 350.324 85.9171 350.24 82.8057H378.832C381.663 82.8057 383.078 81.5723 383.078 79.1056C383.078 75.3775 382.237 71.7054 380.556 68.0894C378.902 64.5575 376.519 61.7124 373.408 59.554C370.436 57.4236 366.932 56.3585 362.896 56.3585C358.86 56.4426 355.342 57.5638 352.342 59.7222C349.343 61.8525 347.016 64.6977 345.363 68.2576C343.737 71.7615 342.84 75.4896 342.672 79.442V79.5261C342.672 79.5261 342.643 79.5833 342.586 79.6977L342.504 79.8624C342.588 82.8898 342.994 85.6228 343.723 88.0615C344.48 90.6964 345.713 93.2192 347.423 95.6298C349.021 97.9004 351.235 99.7364 354.066 101.138C356.729 102.568 359.967 103.282 363.779 103.282ZM375.468 77.0453H350.24C350.436 72.5604 351.712 69.0845 354.066 66.6178C356.337 64.1511 359.406 62.9177 363.274 62.9177C366.947 63.0018 369.904 64.3193 372.146 66.8701C374.277 69.4209 375.384 72.8126 375.468 77.0453ZM427.854 103.282C429.76 103.282 431.162 102.049 432.059 99.5822L444.967 61.8666C445.219 61.1097 445.345 60.507 445.345 60.0586C445.345 58.9373 444.995 58.0263 444.294 57.3255C443.594 56.6808 442.767 56.3585 441.814 56.3585C439.739 56.3585 438.38 57.4797 437.735 59.7222L427.854 91.5093H427.686L417.427 59.554C416.754 57.1994 415.464 56.0221 413.558 56.0221C412.802 56.0221 412.031 56.3304 411.246 56.9471C410.545 57.5638 410.026 58.4328 409.69 59.554L399.599 91.6775L399.431 91.5093L389.34 59.2176C388.835 57.4236 387.49 56.5267 385.303 56.5267C384.294 56.5267 383.439 56.849 382.738 57.4937C381.981 58.0543 381.603 58.8532 381.603 59.8904C381.603 59.8623 381.659 60.1286 381.771 60.6892C381.883 61.2499 381.939 61.5302 381.939 61.5302L394.68 98.7413C395.296 100.395 395.955 101.6 396.656 102.357C397.328 102.974 398.197 103.282 399.263 103.282C400.384 103.282 401.323 102.946 402.08 102.273C402.752 101.685 403.383 100.395 403.972 98.4049L413.558 68.5099H413.727L423.439 99.0777C423.944 100.619 424.547 101.713 425.247 102.357C425.92 102.974 426.789 103.282 427.854 103.282ZM460.689 103.282C464.501 103.198 467.598 102.539 469.981 101.306C472.504 99.9887 474.396 98.3489 475.657 96.3867C476.891 94.5366 477.549 92.3642 477.634 89.8695C477.634 87.1505 476.891 84.88 475.405 83.058C473.919 81.2359 471.481 79.6242 468.089 78.2226C467.276 77.8862 465.889 77.3677 463.926 76.6669C461.908 75.9661 460.226 75.3074 458.881 74.6907C457.619 74.1862 456.344 73.3873 455.055 72.2941C454.045 71.313 453.387 70.1077 453.078 68.6781C453.163 67.0523 453.919 65.6788 455.349 64.5575C456.638 63.4643 458.671 62.9177 461.446 62.9177C462.875 63.0018 463.968 63.2261 464.725 63.5905C466.043 64.2352 467.416 64.978 468.846 65.8189C470.331 66.7439 471.747 67.4167 473.093 67.8371C474.018 67.697 474.816 67.3186 475.489 66.7019C476.106 66.0852 476.414 65.3424 476.414 64.4734C476.414 63.2961 475.812 62.1188 474.606 60.9415C473.289 59.6801 471.369 58.615 468.846 57.746C466.323 56.821 463.604 56.3585 460.689 56.3585C457.998 56.4426 455.377 57.0733 452.826 58.2506C450.668 59.3438 448.916 60.8715 447.57 62.8336C446.309 64.8238 445.678 66.9121 445.678 69.0985C445.678 71.5092 446.365 73.5555 447.739 75.2373C448.888 76.6949 450.415 77.9563 452.322 79.0215C454.396 79.9746 456.863 81.0397 459.722 82.217C462.833 83.4504 465.048 84.4735 466.365 85.2864C468.72 86.688 469.897 88.4119 469.897 90.4581C469.897 92.6446 468.944 94.2283 467.038 95.2094C465.104 96.2465 462.931 96.7651 460.521 96.7651C458.11 96.5969 455.98 96.0223 454.13 95.0412C453.205 94.4806 452.434 93.99 451.817 93.5696C450.528 92.6446 449.631 92.0419 449.126 91.7616C448.425 91.3691 447.682 91.1729 446.898 91.1729C445.973 91.1729 445.202 91.4813 444.585 92.0979C443.94 92.7987 443.618 93.5976 443.618 94.4946C443.87 96.2045 444.557 97.4378 445.678 98.1947C449.659 101.586 454.662 103.282 460.689 103.282Z" fill="#7C7C7C"></path></g><defs><clipPath id="clip0_188_7157"><rect width="477.778" height="150" fill="white"></rect></clipPath></defs></svg> 