<svg width="44" height="44" viewBox="0 0 44 44" fill="none" xmlns="http://www.w3.org/2000/svg">
<path d="M0 22C0 9.84974 9.84974 0 22 0V0C34.1503 0 44 9.84974 44 22V22C44 34.1503 34.1503 44 22 44V44C9.84974 44 0 34.1503 0 22V22Z" fill="#EFF6FF"/>
<path fill-rule="evenodd" clip-rule="evenodd" d="M6.16296 19.0985C11.5903 20.4752 15.5353 19.842 18.2433 20.5391C20.1189 21.027 21.7209 20.8934 22.2226 22.032C23.1746 24.1987 19.794 26.2957 19.0129 31.7735C18.6424 34.37 18.6196 37.3384 18.7621 40.208C20.9684 41.0735 23.3685 41.5498 25.8769 41.5498C28.9782 41.5498 31.9142 40.8237 34.5253 39.5283C35.0098 35.3459 35.6484 31.4888 36.1671 27.7073C36.3724 26.2318 36.475 25.4186 37.0052 23.339C37.6893 20.6669 36.7429 18.0529 34.588 16.5252C30.603 13.7021 35.0954 13.1851 23.9329 5.73228C22.3024 4.65183 20.5978 3.54234 18.8533 2.44446C12.0236 5.08169 6.9953 11.4424 6.16296 19.0985Z" fill="#3B82F6"/>
<path fill-rule="evenodd" clip-rule="evenodd" d="M27.878 41.451C27.764 39.4643 27.6556 37.4719 27.6556 35.462C27.6556 34.1782 27.7126 26.8184 26.5554 26.4408C25.7572 26.1794 25.5178 25.128 25.7458 24.2567C26.0081 24.5471 26.3501 24.8202 26.7834 25.1048C27.0057 25.25 27.3136 25.3662 27.667 25.4417C28.2998 25.5753 29.1037 25.5869 29.8733 25.372C30.6486 25.1513 31.3841 24.7098 31.863 23.943C32.034 23.67 32.1765 23.3505 32.2734 22.9904C32.7523 23.2634 33.636 23.6526 33.636 24.3961C34.7818 25.2965 34.645 27.1902 34.2346 28.4623C35.3063 31.3784 33.7614 33.1965 33.539 35.979C33.4136 37.4835 32.8834 38.8137 32.7637 40.3124C31.213 40.8817 29.5769 41.2767 27.878 41.451Z" fill="white"/>
<path fill-rule="evenodd" clip-rule="evenodd" d="M26.6579 41.5381C26.6351 39.11 26.618 36.6761 26.5952 34.2248C26.6807 33.9459 27.1197 33.6555 27.1767 33.0862C27.2223 32.6215 27.3307 32.1858 27.3307 31.6689C27.3307 30.5942 27.1881 29.5544 26.9487 28.5204C26.9259 28.1545 26.8974 27.6956 26.7434 27.3877C26.5154 26.9172 26.0023 26.6268 25.5291 26.4351C24.9191 27.0101 25.2384 27.6665 24.9704 28.3694C24.7424 28.9677 25.1415 28.9445 24.5144 29.4557C23.454 30.3096 24.4004 32.9642 24.4916 33.9692C24.5714 36.496 24.6512 39.0113 24.7367 41.5207C25.113 41.5439 25.4892 41.5556 25.8712 41.5556C26.1334 41.5556 26.3957 41.5497 26.6579 41.5381Z" fill="white"/>
<path fill-rule="evenodd" clip-rule="evenodd" d="M10.7466 8.27656C16.1967 11.5702 21.2193 15.1775 25.2954 18.9591C24.9819 22.3166 24.8964 23.5481 27.154 24.6866C28.317 25.2733 31.863 24.9364 32.1537 21.8867C34.5367 18.2969 33.9324 15.5202 28.374 14.2829C23.7163 11.425 19.2524 8.09067 14.3895 4.87256C13.0384 5.84845 11.8184 6.9928 10.7466 8.27656Z" fill="white"/>
<path fill-rule="evenodd" clip-rule="evenodd" d="M34.1946 19.6678C33.5561 20.6146 33.1172 21.6544 33.8127 22.7929C34.0407 23.1589 34.8445 25.041 35.1524 25.0061C35.7111 24.9422 35.9106 21.6718 35.9163 20.9051C35.9334 19.2321 34.7476 18.5641 34.1946 19.6678Z" fill="white"/>
</svg>
